<svg id="svg" version="1.1" xmlns="http://www.w3.org/2000/svg" xmlns:xlink="http://www.w3.org/1999/xlink" width="400" height="400" viewBox="0, 0, 400,400"><g id="svgg"><path id="path0" d="M116.300 141.489 C 117.015 141.578,118.185 141.578,118.900 141.489 C 119.615 141.401,119.030 141.328,117.600 141.328 C 116.170 141.328,115.585 141.401,116.300 141.489 M280.000 141.467 C 279.010 141.551,277.840 141.772,277.400 141.959 C 274.905 143.019,272.407 144.297,270.998 145.236 C 270.117 145.823,268.767 146.661,267.998 147.099 C 267.229 147.536,264.620 149.114,262.200 150.605 C 259.780 152.095,257.171 153.671,256.402 154.106 C 255.633 154.541,254.251 155.415,253.330 156.048 C 252.409 156.682,251.463 157.200,251.228 157.200 C 250.993 157.200,250.800 157.380,250.800 157.600 C 250.800 157.820,250.607 158.000,250.372 158.000 C 250.137 158.000,249.159 158.540,248.200 159.200 C 247.241 159.860,246.341 160.400,246.200 160.400 C 246.059 160.400,245.159 160.940,244.200 161.600 C 243.241 162.260,242.278 162.800,242.061 162.800 C 241.844 162.800,241.607 162.941,241.533 163.113 C 241.460 163.285,240.770 163.800,240.000 164.258 C 239.230 164.715,236.642 166.284,234.249 167.744 C 231.855 169.205,229.755 170.400,229.582 170.400 C 229.409 170.400,229.207 170.535,229.133 170.700 C 228.966 171.076,226.836 172.375,225.900 172.671 C 225.515 172.793,225.200 173.052,225.200 173.247 C 225.200 173.441,225.010 173.600,224.778 173.600 C 224.546 173.600,223.296 174.320,222.000 175.200 C 220.704 176.080,219.454 176.800,219.222 176.800 C 218.990 176.800,218.800 176.980,218.800 177.200 C 218.800 177.420,218.603 177.600,218.362 177.600 C 218.121 177.600,217.446 177.939,216.862 178.353 C 216.278 178.767,215.170 179.464,214.400 179.902 C 213.630 180.340,210.750 182.099,208.000 183.812 C 205.250 185.524,202.280 187.302,201.400 187.763 L 199.800 188.600 199.901 257.900 L 200.002 327.200 201.982 327.200 C 203.997 327.200,204.633 327.389,208.237 329.055 C 212.675 331.108,215.727 334.592,217.678 339.832 C 218.711 342.608,219.300 376.011,218.431 382.578 C 217.021 393.237,207.850 400.367,197.804 398.615 C 196.047 398.309,194.540 398.126,194.457 398.210 C 194.295 398.372,195.238 398.598,197.800 399.013 C 198.680 399.155,199.626 399.459,199.903 399.687 C 200.800 400.429,207.334 399.815,208.323 398.896 C 208.621 398.619,209.058 398.512,209.294 398.658 C 209.549 398.815,209.607 398.736,209.438 398.462 C 209.247 398.153,209.538 398.000,210.314 398.000 C 210.968 398.000,211.793 397.650,212.200 397.200 C 212.598 396.760,213.335 396.400,213.838 396.400 C 214.341 396.400,214.864 396.220,215.000 396.000 C 215.136 395.780,215.578 395.600,215.983 395.600 C 216.387 395.600,217.491 395.161,218.436 394.624 C 219.381 394.087,220.300 393.738,220.477 393.848 C 220.655 393.957,220.800 393.857,220.800 393.624 C 220.800 393.391,221.149 393.200,221.576 393.200 C 222.003 393.200,222.464 393.020,222.600 392.800 C 222.736 392.580,223.119 392.400,223.452 392.400 C 223.785 392.400,224.327 392.130,224.657 391.800 C 224.987 391.470,225.604 391.178,226.029 391.150 C 227.255 391.070,228.307 390.694,230.454 389.565 C 231.254 389.144,232.199 388.800,232.554 388.800 C 232.910 388.800,233.200 388.609,233.200 388.376 C 233.200 388.143,233.342 388.041,233.516 388.148 C 233.690 388.256,234.455 388.066,235.216 387.728 C 237.964 386.505,240.204 385.406,240.400 385.186 C 240.675 384.877,244.122 383.835,244.530 383.937 C 244.711 383.983,244.745 383.835,244.606 383.610 C 244.464 383.379,244.723 383.200,245.200 383.200 C 245.666 383.200,245.960 383.058,245.852 382.885 C 245.684 382.612,246.507 382.413,248.282 382.298 C 248.548 382.281,248.672 382.117,248.559 381.933 C 248.445 381.750,248.618 381.600,248.943 381.600 C 249.268 381.600,249.624 381.375,249.735 381.100 C 249.889 380.719,249.944 380.725,249.968 381.129 C 249.992 381.528,250.155 381.503,250.632 381.025 C 250.980 380.677,251.430 380.495,251.632 380.620 C 251.835 380.745,252.000 380.657,252.000 380.424 C 252.000 380.191,252.232 380.000,252.515 380.000 C 252.799 380.000,253.737 379.640,254.600 379.200 C 255.463 378.760,256.480 378.400,256.861 378.400 C 257.241 378.400,257.664 378.220,257.800 378.000 C 257.936 377.780,258.397 377.600,258.824 377.600 C 259.251 377.600,259.600 377.420,259.600 377.200 C 259.600 376.980,259.971 376.800,260.424 376.800 C 260.877 376.800,261.136 376.620,261.000 376.400 C 260.864 376.180,260.988 375.986,261.276 375.969 C 262.346 375.907,263.087 375.673,264.724 374.882 C 265.648 374.436,266.278 374.280,266.125 374.535 C 265.920 374.877,265.999 374.886,266.423 374.569 C 266.740 374.332,267.858 373.821,268.907 373.433 C 269.956 373.045,271.052 372.491,271.341 372.201 C 271.631 371.912,272.393 371.614,273.034 371.540 C 273.675 371.467,274.515 371.062,274.900 370.642 C 275.406 370.089,275.602 370.033,275.606 370.439 C 275.610 370.810,275.712 370.851,275.906 370.562 C 276.068 370.320,276.682 370.005,277.272 369.861 C 277.862 369.717,278.627 369.316,278.972 368.971 C 279.343 368.599,279.600 368.530,279.600 368.800 C 279.600 369.069,279.860 368.997,280.232 368.625 C 280.580 368.277,281.030 368.095,281.232 368.220 C 281.435 368.345,281.600 368.257,281.600 368.024 C 281.600 367.791,281.849 367.600,282.154 367.600 C 282.459 367.600,283.211 367.339,283.826 367.020 C 284.440 366.702,285.118 366.550,285.333 366.682 C 285.550 366.816,285.596 366.718,285.438 366.462 C 285.251 366.159,285.505 366.000,286.176 366.000 C 286.739 366.000,287.200 365.820,287.200 365.600 C 287.200 365.380,287.650 365.200,288.200 365.200 C 288.750 365.200,289.200 365.062,289.200 364.894 C 289.200 364.597,291.666 363.388,294.300 362.394 C 295.015 362.124,295.600 361.745,295.600 361.551 C 295.600 361.358,295.735 361.221,295.900 361.247 C 296.891 361.404,298.010 361.140,297.800 360.800 C 297.655 360.565,298.085 360.400,298.843 360.400 C 299.553 360.400,300.014 360.280,299.867 360.134 C 299.548 359.815,303.432 358.351,304.677 358.321 C 305.160 358.309,305.937 357.893,306.405 357.395 C 306.886 356.883,307.560 356.569,307.956 356.673 C 308.341 356.773,308.875 356.592,309.143 356.269 C 309.418 355.937,310.014 355.767,310.515 355.876 C 311.229 356.032,311.284 355.986,310.800 355.641 C 310.324 355.301,310.468 355.211,311.500 355.206 C 312.215 355.203,312.800 355.020,312.800 354.800 C 312.800 354.580,313.149 354.400,313.576 354.400 C 314.003 354.400,314.464 354.220,314.600 354.000 C 314.736 353.780,315.287 353.600,315.824 353.600 C 316.361 353.600,316.800 353.420,316.800 353.200 C 316.800 352.980,317.160 352.800,317.600 352.800 C 318.040 352.800,318.400 352.620,318.400 352.400 C 318.400 352.180,318.739 352.000,319.154 352.000 C 320.215 352.000,322.048 350.987,321.694 350.596 C 321.532 350.418,321.582 350.375,321.804 350.500 C 322.026 350.626,322.836 350.446,323.604 350.102 C 324.372 349.757,325.145 349.506,325.321 349.545 C 325.498 349.583,325.918 349.339,326.254 349.003 C 326.590 348.668,327.030 348.495,327.232 348.620 C 327.435 348.745,327.600 348.657,327.600 348.424 C 327.600 348.191,328.140 348.000,328.800 348.000 C 329.460 348.000,330.000 347.820,330.000 347.600 C 330.000 347.380,330.360 347.200,330.800 347.200 C 331.240 347.200,331.600 347.020,331.600 346.800 C 331.600 346.580,331.971 346.400,332.424 346.400 C 332.877 346.400,333.136 346.220,333.000 346.000 C 332.788 345.657,334.269 345.378,335.330 345.563 C 335.511 345.594,335.545 345.435,335.406 345.210 C 335.172 344.831,336.058 344.596,337.000 344.786 C 337.220 344.830,337.268 344.734,337.106 344.573 C 336.709 344.176,338.657 343.200,339.846 343.200 C 340.371 343.200,340.800 343.020,340.800 342.800 C 340.800 342.580,341.160 342.400,341.600 342.400 C 342.040 342.400,342.400 342.243,342.400 342.051 C 342.400 341.859,343.128 341.586,344.019 341.443 C 345.081 341.274,345.541 341.028,345.357 340.730 C 345.195 340.468,345.254 340.386,345.497 340.536 C 345.728 340.679,346.430 340.528,347.058 340.200 C 347.686 339.873,348.500 339.604,348.867 339.602 C 349.233 339.601,349.593 339.425,349.667 339.212 C 349.740 338.998,350.160 338.764,350.600 338.691 C 351.040 338.618,352.030 338.271,352.800 337.920 C 353.570 337.568,354.772 337.044,355.471 336.755 C 356.170 336.467,356.655 336.088,356.548 335.915 C 356.440 335.742,356.813 335.600,357.376 335.600 C 357.939 335.600,358.400 335.420,358.400 335.200 C 358.400 334.980,358.673 334.800,359.006 334.800 C 359.976 334.800,362.800 333.834,362.800 333.503 C 362.800 333.336,363.160 333.200,363.600 333.200 C 364.040 333.200,364.400 333.053,364.400 332.872 C 364.400 332.692,365.300 332.300,366.400 332.000 C 367.500 331.700,368.400 331.308,368.400 331.128 C 368.400 330.947,368.777 330.800,369.237 330.800 C 369.738 330.800,370.159 330.479,370.284 330.000 C 370.400 329.557,370.830 329.200,371.247 329.200 C 371.661 329.200,372.000 329.020,372.000 328.800 C 372.000 328.580,372.274 328.400,372.609 328.400 C 373.350 328.400,377.600 324.225,377.600 323.497 C 377.600 323.211,377.960 322.717,378.400 322.400 C 378.840 322.083,379.200 321.432,379.200 320.954 C 379.200 320.477,379.467 319.983,379.793 319.858 C 380.150 319.721,380.286 319.369,380.135 318.975 C 379.997 318.614,380.045 318.202,380.242 318.060 C 380.727 317.708,381.629 315.135,381.166 315.421 C 380.964 315.546,380.765 314.609,380.722 313.324 C 380.679 312.046,380.624 310.503,380.599 309.897 C 380.574 309.290,380.339 308.579,380.077 308.317 C 379.814 308.054,379.600 307.604,379.600 307.315 C 379.600 307.026,379.420 306.432,379.200 305.995 C 378.980 305.558,378.632 304.862,378.427 304.449 C 378.222 304.035,376.938 301.560,375.575 298.949 C 370.371 288.981,368.418 285.206,365.358 279.200 C 363.621 275.790,362.065 272.940,361.900 272.867 C 361.735 272.793,361.600 272.403,361.600 272.000 C 361.600 271.597,361.464 271.207,361.299 271.133 C 361.133 271.060,360.085 269.200,358.971 267.000 C 357.856 264.800,355.854 260.930,354.523 258.400 C 353.191 255.870,350.610 250.920,348.787 247.400 C 346.965 243.880,344.489 239.110,343.286 236.800 C 338.543 227.693,334.961 220.752,332.244 215.400 C 330.680 212.320,329.265 209.740,329.100 209.667 C 328.935 209.593,328.800 209.203,328.800 208.800 C 328.800 208.397,328.664 208.007,328.498 207.933 C 328.332 207.860,327.571 206.540,326.806 205.000 C 326.042 203.460,325.323 202.110,325.208 202.000 C 325.094 201.890,324.221 200.270,323.270 198.400 C 322.318 196.530,319.629 191.310,317.294 186.800 C 314.959 182.290,312.138 176.800,311.026 174.600 C 309.913 172.400,308.867 170.540,308.701 170.467 C 308.536 170.393,308.400 170.003,308.400 169.600 C 308.400 169.197,308.265 168.807,308.100 168.733 C 307.935 168.660,306.739 166.530,305.442 164.000 C 304.145 161.470,302.027 157.343,300.735 154.828 C 297.854 149.221,296.625 147.541,293.549 145.000 C 292.330 143.993,289.295 142.400,288.596 142.400 C 288.305 142.400,288.007 142.243,287.933 142.051 C 287.775 141.636,282.554 141.252,280.000 141.467 M111.000 142.378 C 110.120 142.795,109.627 143.150,109.905 143.168 C 110.183 143.185,110.723 143.039,111.105 142.841 C 111.487 142.644,112.250 142.296,112.800 142.068 C 113.350 141.840,113.530 141.647,113.200 141.638 C 112.870 141.628,111.880 141.962,111.000 142.378 M121.400 142.000 C 121.536 142.220,122.042 142.387,122.524 142.372 C 123.369 142.345,123.371 142.331,122.600 142.000 C 121.499 141.527,121.108 141.527,121.400 142.000 M107.594 144.018 C 107.047 144.439,106.780 144.780,107.000 144.778 C 107.529 144.773,108.991 143.658,108.765 143.431 C 108.668 143.334,108.141 143.598,107.594 144.018 M128.400 144.897 C 128.400 145.214,132.862 148.071,133.055 147.879 C 133.153 147.780,132.626 147.340,131.883 146.902 C 131.139 146.463,130.051 145.790,129.465 145.406 C 128.879 145.022,128.400 144.793,128.400 144.897 M104.542 146.500 C 102.406 148.785,96.627 158.834,97.480 158.779 C 97.656 158.768,98.423 157.463,99.185 155.879 C 101.360 151.356,103.021 148.681,104.777 146.872 C 105.669 145.952,106.255 145.200,106.078 145.200 C 105.901 145.200,105.210 145.785,104.542 146.500 M133.600 148.118 C 133.600 148.234,135.175 149.309,137.100 150.508 C 141.314 153.131,141.600 153.295,141.600 153.077 C 141.600 152.870,138.908 151.071,136.963 149.979 C 136.185 149.542,135.110 148.898,134.574 148.546 C 134.039 148.195,133.600 148.003,133.600 148.118 M143.600 154.327 C 143.600 154.516,144.050 154.877,144.600 155.127 C 145.150 155.378,145.600 155.517,145.600 155.437 C 145.600 155.357,145.150 154.997,144.600 154.637 C 144.050 154.276,143.600 154.137,143.600 154.327 M148.000 157.200 C 148.550 157.630,149.180 157.982,149.400 157.982 C 149.620 157.982,149.350 157.630,148.800 157.200 C 148.250 156.770,147.620 156.418,147.400 156.418 C 147.180 156.418,147.450 156.770,148.000 157.200 M150.000 158.354 C 150.000 158.599,150.193 158.800,150.428 158.800 C 150.663 158.800,151.666 159.357,152.656 160.039 C 153.646 160.720,154.543 161.190,154.649 161.084 C 154.755 160.978,154.158 160.477,153.321 159.970 C 152.484 159.463,151.395 158.792,150.900 158.478 C 150.312 158.106,150.000 158.063,150.000 158.354 M96.386 160.301 C 95.545 161.987,95.540 162.000,95.747 162.000 C 96.005 162.000,97.242 159.508,97.069 159.336 C 96.995 159.262,96.688 159.696,96.386 160.301 M155.203 161.467 C 155.205 161.650,155.610 161.996,156.103 162.235 C 156.596 162.474,158.530 163.622,160.400 164.787 C 165.501 167.965,172.946 172.492,173.400 172.693 C 174.668 173.253,171.197 170.885,167.600 168.736 C 165.290 167.356,162.230 165.492,160.800 164.594 C 156.004 161.582,155.200 161.133,155.203 161.467 M93.821 165.159 C 93.034 166.722,92.527 167.995,92.695 167.988 C 93.061 167.974,95.658 162.725,95.418 162.485 C 95.327 162.393,94.608 163.596,93.821 165.159 M175.600 174.007 C 175.600 174.223,175.752 174.400,175.938 174.400 C 176.124 174.400,177.404 175.129,178.784 176.021 C 180.163 176.912,181.363 177.570,181.451 177.482 C 181.539 177.394,180.258 176.488,178.605 175.468 C 176.952 174.448,175.600 173.790,175.600 174.007 M88.154 176.100 C 86.316 179.682,82.005 187.981,79.531 192.700 C 78.003 195.615,76.899 197.994,77.077 197.987 C 77.254 197.980,78.133 196.495,79.028 194.687 C 79.924 192.879,82.592 187.665,84.959 183.100 C 87.325 178.535,89.162 174.800,89.041 174.800 C 88.920 174.800,88.520 175.385,88.154 176.100 M182.000 177.976 C 182.000 178.209,182.183 178.400,182.406 178.400 C 182.630 178.400,183.755 179.007,184.906 179.748 C 190.374 183.268,198.929 188.405,199.077 188.257 C 199.168 188.166,198.558 187.685,197.721 187.189 C 196.884 186.692,195.120 185.617,193.800 184.800 C 190.316 182.643,183.083 178.193,182.500 177.848 C 182.225 177.686,182.000 177.743,182.000 177.976 M73.400 204.400 C 73.038 205.101,72.826 205.759,72.929 205.862 C 73.032 205.965,73.406 205.469,73.760 204.760 C 74.114 204.051,74.326 203.393,74.231 203.298 C 74.136 203.203,73.762 203.699,73.400 204.400 M71.786 207.700 L 71.152 209.000 71.967 208.000 C 72.752 207.037,73.008 206.400,72.610 206.400 C 72.506 206.400,72.135 206.985,71.786 207.700 M69.875 211.275 C 69.273 212.397,68.863 213.397,68.964 213.497 C 69.064 213.597,69.620 212.744,70.200 211.600 C 71.571 208.894,71.299 208.621,69.875 211.275 M66.988 216.900 C 66.169 218.495,65.370 219.980,65.212 220.200 C 64.705 220.905,64.316 222.238,64.745 221.800 C 65.423 221.108,68.959 214.000,68.625 214.000 C 68.544 214.000,67.807 215.305,66.988 216.900 M62.199 226.083 C 61.153 228.127,60.491 229.620,60.727 229.400 C 61.299 228.867,64.451 222.717,64.253 222.520 C 64.168 222.435,63.244 224.038,62.199 226.083 M55.929 238.059 C 53.922 241.953,53.746 242.356,54.294 241.800 C 54.924 241.162,58.031 235.098,57.832 234.898 C 57.732 234.799,56.876 236.221,55.929 238.059 M53.040 243.640 C 52.686 244.349,52.474 245.007,52.569 245.102 C 52.664 245.197,53.038 244.701,53.400 244.000 C 53.762 243.299,53.974 242.641,53.871 242.538 C 53.768 242.435,53.394 242.931,53.040 243.640 M50.588 248.500 C 49.769 250.095,48.970 251.580,48.812 251.800 C 48.403 252.368,47.990 253.600,48.208 253.600 C 48.379 253.600,51.431 247.846,52.080 246.300 C 52.792 244.605,51.951 245.845,50.588 248.500 M46.234 256.789 C 45.421 258.335,44.901 259.595,45.078 259.588 C 45.426 259.575,48.075 254.342,47.848 254.115 C 47.773 254.039,47.046 255.243,46.234 256.789 M42.200 264.400 C 41.838 265.101,41.626 265.759,41.729 265.862 C 41.832 265.965,42.206 265.469,42.560 264.760 C 42.914 264.051,43.126 263.393,43.031 263.298 C 42.936 263.203,42.562 263.699,42.200 264.400 M40.619 267.563 C 40.267 268.243,40.119 268.799,40.290 268.797 C 40.655 268.793,41.669 266.735,41.425 266.492 C 41.334 266.400,40.971 266.882,40.619 267.563 M39.080 270.480 C 38.692 271.156,38.457 271.791,38.558 271.891 C 38.659 271.992,39.038 271.501,39.400 270.800 C 40.257 269.143,39.997 268.883,39.080 270.480 M35.267 277.900 C 29.285 289.490,27.567 292.929,27.922 292.600 C 28.160 292.380,29.824 289.320,31.620 285.800 C 33.417 282.280,35.019 279.220,35.181 279.000 C 35.583 278.455,36.015 277.200,35.802 277.200 C 35.706 277.200,35.466 277.515,35.267 277.900 M25.819 295.963 C 25.467 296.643,25.319 297.199,25.490 297.197 C 25.855 297.193,26.869 295.135,26.625 294.892 C 26.534 294.800,26.171 295.282,25.819 295.963 M24.261 299.100 L 23.574 300.600 24.378 299.600 C 25.071 298.738,25.467 297.600,25.074 297.600 C 25.005 297.600,24.639 298.275,24.261 299.100 M21.023 305.406 C 20.122 307.564,20.311 308.128,21.237 306.042 C 21.666 305.075,21.934 304.200,21.832 304.098 C 21.730 303.997,21.366 304.585,21.023 305.406 M19.700 308.457 C 19.425 308.733,19.200 309.518,19.200 310.200 C 19.200 310.882,18.992 311.648,18.737 311.903 C 18.386 312.254,18.397 312.515,18.783 312.979 C 19.063 313.317,19.214 314.125,19.118 314.775 C 19.023 315.426,19.092 315.867,19.272 315.755 C 19.453 315.644,19.600 314.339,19.600 312.856 C 19.600 311.373,19.797 309.963,20.038 309.722 C 20.278 309.482,20.413 308.985,20.338 308.619 C 20.227 308.084,20.101 308.052,19.700 308.457 M19.200 316.995 C 19.200 317.359,19.485 317.942,19.832 318.290 C 20.409 318.866,20.453 318.822,20.332 317.792 C 20.191 316.583,19.200 315.886,19.200 316.995 M19.798 319.603 C 19.661 319.824,19.831 320.114,20.175 320.246 C 20.519 320.378,20.800 320.934,20.800 321.482 C 20.800 322.074,21.288 322.935,22.000 323.600 C 22.660 324.217,23.200 324.949,23.200 325.227 C 23.200 325.506,23.312 325.621,23.449 325.485 C 23.585 325.348,24.381 325.948,25.217 326.818 C 26.053 327.688,27.032 328.400,27.392 328.400 C 27.752 328.400,27.936 328.580,27.800 328.800 C 27.664 329.020,27.884 329.200,28.288 329.200 C 28.693 329.200,29.283 329.560,29.600 330.000 C 30.196 330.826,31.600 331.107,31.600 330.400 C 31.600 330.180,31.240 330.000,30.800 330.000 C 30.360 330.000,30.000 329.825,30.000 329.610 C 30.000 329.396,29.450 328.936,28.778 328.589 C 27.435 327.894,25.889 326.678,24.622 325.319 C 22.646 323.200,21.798 322.147,21.777 321.787 C 21.680 320.149,20.361 318.692,19.798 319.603 M195.200 327.600 C 194.436 328.094,195.258 328.094,196.800 327.600 L 197.800 327.280 196.800 327.246 C 196.250 327.227,195.530 327.387,195.200 327.600 M189.938 329.953 C 186.913 331.871,182.082 337.816,182.891 338.624 C 182.984 338.718,183.486 337.941,184.005 336.897 C 185.136 334.623,188.815 330.831,191.015 329.671 C 191.887 329.211,192.410 328.827,192.178 328.818 C 191.946 328.808,190.938 329.319,189.938 329.953 M181.997 340.700 C 181.346 342.519,180.950 378.322,181.538 382.200 C 181.786 383.830,181.918 377.789,181.951 363.360 C 181.984 348.884,182.142 341.712,182.446 340.839 C 182.692 340.135,182.812 339.479,182.713 339.380 C 182.615 339.281,182.292 339.876,181.997 340.700 M182.027 385.092 C 181.908 387.261,185.729 393.130,188.600 395.186 C 189.040 395.502,188.461 394.798,187.314 393.623 C 185.492 391.757,183.820 388.996,182.456 385.600 C 182.235 385.050,182.042 384.821,182.027 385.092 M189.600 396.024 C 189.600 396.231,189.797 396.400,190.038 396.400 C 190.279 396.400,191.000 396.773,191.641 397.229 C 192.281 397.685,193.029 398.000,193.302 397.929 C 193.576 397.858,192.855 397.316,191.700 396.724 C 190.545 396.132,189.600 395.817,189.600 396.024 " stroke="none" fill="#a4c3eb" fill-rule="evenodd"></path><path id="path1" d="M47.700 0.267 C 46.985 0.368,46.400 0.619,46.400 0.825 C 46.400 1.031,46.040 1.200,45.600 1.200 C 45.160 1.200,44.800 1.380,44.800 1.600 C 44.800 1.820,44.530 2.000,44.200 2.000 C 43.870 2.000,43.600 2.180,43.600 2.400 C 43.600 2.620,43.330 2.800,43.000 2.800 C 42.670 2.800,42.400 2.980,42.400 3.200 C 42.400 3.420,42.130 3.600,41.800 3.600 C 41.470 3.600,41.200 3.884,41.200 4.231 C 41.200 4.579,40.514 5.524,39.675 6.331 C 38.837 7.139,37.893 8.385,37.578 9.100 C 37.263 9.815,36.869 10.400,36.702 10.400 C 36.536 10.400,36.400 10.940,36.400 11.600 C 36.400 12.260,36.220 12.800,36.000 12.800 C 35.778 12.800,35.600 13.867,35.600 15.200 C 35.600 16.533,35.422 17.600,35.200 17.600 C 34.949 17.600,34.800 20.200,34.800 24.600 C 34.800 29.000,34.651 31.600,34.400 31.600 C 34.149 31.600,34.000 34.125,34.000 38.376 C 34.000 42.463,33.841 45.251,33.600 45.400 C 33.359 45.549,33.200 48.337,33.200 52.424 C 33.200 56.675,33.051 59.200,32.800 59.200 C 32.549 59.200,32.400 61.800,32.400 66.200 C 32.400 70.278,32.244 73.200,32.026 73.200 C 31.816 73.200,31.548 76.327,31.417 80.300 C 31.288 84.205,31.088 90.280,30.971 93.800 C 30.855 97.320,30.589 100.371,30.380 100.580 C 30.171 100.789,30.000 103.940,30.000 107.600 C 30.000 111.266,29.830 114.410,29.620 114.620 C 29.265 114.975,29.139 117.466,28.596 134.800 C 28.483 138.430,28.214 141.760,28.000 142.200 C 27.786 142.640,27.537 145.880,27.448 149.400 C 27.064 164.483,26.868 168.657,26.499 169.600 C 26.283 170.150,26.146 173.300,26.193 176.600 C 26.249 180.483,26.125 182.798,25.840 183.161 C 25.565 183.513,25.386 186.173,25.362 190.266 C 25.342 193.864,25.207 196.927,25.062 197.071 C 24.918 197.215,24.800 200.363,24.800 204.067 C 24.800 208.289,24.651 210.800,24.400 210.800 C 24.149 210.800,24.000 213.400,24.000 217.800 C 24.000 222.200,23.851 224.800,23.600 224.800 C 23.349 224.800,23.200 227.325,23.200 231.576 C 23.200 235.663,23.041 238.451,22.800 238.600 C 22.560 238.749,22.400 241.471,22.400 245.424 C 22.400 249.541,22.250 252.000,22.000 252.000 C 21.749 252.000,21.600 254.600,21.600 259.000 C 21.600 263.400,21.451 266.000,21.200 266.000 C 20.949 266.000,20.800 268.525,20.800 272.776 C 20.800 276.863,20.641 279.651,20.400 279.800 C 20.159 279.949,20.000 282.737,20.000 286.824 C 20.000 291.075,19.851 293.600,19.600 293.600 C 19.349 293.600,19.200 296.067,19.200 300.200 C 19.200 304.333,19.349 306.800,19.600 306.800 C 19.820 306.800,20.000 306.528,20.000 306.195 C 20.000 305.557,20.251 304.963,21.352 303.000 C 21.722 302.340,22.331 301.125,22.706 300.300 C 23.082 299.475,23.526 298.800,23.694 298.800 C 23.862 298.800,24.000 298.440,24.000 298.000 C 24.000 297.560,24.146 297.200,24.325 297.200 C 24.504 297.200,24.898 296.570,25.200 295.800 C 25.502 295.030,25.896 294.400,26.075 294.400 C 26.254 294.400,26.400 294.040,26.400 293.600 C 26.400 293.160,26.580 292.800,26.800 292.800 C 27.020 292.800,27.200 292.511,27.200 292.158 C 27.200 291.806,28.392 289.241,29.850 286.458 C 31.307 283.676,33.062 280.320,33.750 279.000 C 34.437 277.680,35.135 276.540,35.300 276.467 C 35.465 276.393,35.600 275.988,35.600 275.567 C 35.600 275.145,35.780 274.800,36.000 274.800 C 36.220 274.800,36.400 274.440,36.400 274.000 C 36.400 273.560,36.580 273.200,36.800 273.200 C 37.020 273.200,37.200 272.840,37.200 272.400 C 37.200 271.960,37.380 271.600,37.600 271.600 C 37.820 271.600,38.000 271.240,38.000 270.800 C 38.000 270.360,38.135 269.999,38.300 269.999 C 38.465 269.998,39.050 269.008,39.600 267.800 C 40.150 266.592,40.735 265.602,40.900 265.601 C 41.065 265.601,41.200 265.255,41.200 264.833 C 41.200 264.412,41.342 264.007,41.516 263.933 C 41.690 263.860,43.555 260.380,45.660 256.200 C 47.765 252.020,50.207 247.250,51.087 245.600 C 51.967 243.950,53.117 241.790,53.643 240.800 C 54.169 239.810,54.735 238.940,54.900 238.867 C 55.065 238.793,55.200 238.388,55.200 237.967 C 55.200 237.545,55.380 237.200,55.600 237.200 C 55.820 237.200,56.000 236.840,56.000 236.400 C 56.000 235.960,56.180 235.600,56.400 235.600 C 56.620 235.600,56.800 235.240,56.800 234.800 C 56.800 234.360,56.980 234.000,57.200 234.000 C 57.420 234.000,57.600 233.655,57.600 233.233 C 57.600 232.812,57.735 232.407,57.900 232.333 C 58.065 232.260,59.631 229.320,61.380 225.800 C 63.128 222.280,64.703 219.340,64.880 219.267 C 65.056 219.193,65.200 218.803,65.200 218.400 C 65.200 217.997,65.336 217.607,65.502 217.533 C 65.668 217.460,66.432 216.140,67.200 214.600 C 67.968 213.060,68.732 211.740,68.898 211.667 C 69.064 211.593,69.200 211.188,69.200 210.767 C 69.200 210.345,69.380 210.000,69.600 210.000 C 69.820 210.000,70.000 209.640,70.000 209.200 C 70.000 208.760,70.180 208.400,70.400 208.400 C 70.620 208.400,70.800 208.040,70.800 207.600 C 70.800 207.160,70.935 206.799,71.100 206.799 C 71.265 206.798,71.850 205.808,72.400 204.600 C 72.950 203.392,73.501 202.402,73.625 202.401 C 73.749 202.401,74.098 201.770,74.400 201.000 C 74.702 200.230,75.096 199.600,75.275 199.600 C 75.454 199.600,75.600 199.240,75.600 198.800 C 75.600 198.360,75.780 198.000,76.000 198.000 C 76.220 198.000,76.400 197.640,76.400 197.200 C 76.400 196.760,76.580 196.400,76.800 196.400 C 77.020 196.400,77.203 196.175,77.207 195.900 C 77.212 195.625,77.809 194.230,78.536 192.800 C 82.466 185.063,85.021 180.177,85.229 180.000 C 85.358 179.890,85.719 179.215,86.030 178.500 C 86.341 177.785,86.731 177.200,86.898 177.200 C 87.064 177.200,87.200 176.840,87.200 176.400 C 87.200 175.960,87.380 175.600,87.600 175.600 C 87.820 175.600,88.000 175.240,88.000 174.800 C 88.000 174.360,88.180 174.000,88.400 174.000 C 88.620 174.000,88.800 173.640,88.800 173.200 C 88.800 172.760,88.980 172.400,89.200 172.400 C 89.420 172.400,89.600 172.040,89.600 171.600 C 89.600 171.160,89.780 170.800,90.000 170.800 C 90.220 170.800,90.400 170.440,90.400 170.000 C 90.400 169.560,90.535 169.199,90.700 169.199 C 90.865 169.198,91.450 168.208,92.000 167.000 C 92.550 165.792,93.135 164.802,93.300 164.801 C 93.465 164.801,93.600 164.515,93.600 164.167 C 93.600 163.819,94.230 162.460,95.000 161.146 C 95.770 159.832,96.400 158.497,96.400 158.179 C 96.400 157.860,96.535 157.599,96.700 157.597 C 97.051 157.593,98.000 155.663,98.000 154.954 C 98.000 154.686,98.136 154.407,98.302 154.333 C 98.468 154.260,99.215 152.985,99.962 151.500 C 100.709 150.015,101.473 148.800,101.660 148.800 C 101.847 148.800,102.000 148.589,102.000 148.332 C 102.000 147.694,106.373 143.600,107.054 143.600 C 107.354 143.600,107.600 143.420,107.600 143.200 C 107.600 142.980,107.960 142.800,108.400 142.800 C 108.840 142.800,109.200 142.620,109.200 142.400 C 109.200 142.180,109.560 142.000,110.000 142.000 C 110.440 142.000,110.800 141.820,110.800 141.600 C 110.800 141.380,111.520 141.200,112.400 141.200 C 113.280 141.200,114.000 141.020,114.000 140.800 C 114.000 140.565,115.400 140.400,117.400 140.400 C 119.400 140.400,120.800 140.565,120.800 140.800 C 120.800 141.020,121.335 141.200,121.988 141.200 C 122.641 141.200,123.817 141.560,124.600 142.000 C 125.383 142.440,126.176 142.800,126.362 142.800 C 126.740 142.800,128.954 144.055,132.740 146.416 C 134.137 147.287,135.365 148.000,135.468 148.000 C 135.571 148.000,136.441 148.540,137.400 149.200 C 138.359 149.860,139.337 150.400,139.572 150.400 C 139.807 150.400,140.000 150.580,140.000 150.800 C 140.000 151.020,140.236 151.200,140.525 151.200 C 140.813 151.200,141.436 151.560,141.908 152.000 C 142.380 152.440,142.962 152.800,143.200 152.800 C 143.438 152.800,144.020 153.160,144.492 153.600 C 144.964 154.040,145.587 154.400,145.875 154.400 C 146.164 154.400,146.400 154.580,146.400 154.800 C 146.400 155.020,146.636 155.200,146.925 155.200 C 147.213 155.200,147.836 155.560,148.308 156.000 C 148.780 156.440,149.444 156.800,149.783 156.800 C 150.122 156.800,150.400 156.980,150.400 157.200 C 150.400 157.420,150.670 157.600,151.000 157.600 C 151.330 157.600,151.600 157.780,151.600 158.000 C 151.600 158.220,151.870 158.400,152.200 158.400 C 152.530 158.400,152.800 158.580,152.800 158.800 C 152.800 159.020,153.025 159.213,153.300 159.228 C 153.575 159.244,154.880 159.952,156.200 160.801 C 157.520 161.651,159.500 162.832,160.600 163.425 C 161.700 164.018,162.690 164.615,162.800 164.751 C 163.112 165.139,165.322 166.425,166.100 166.671 C 166.485 166.793,166.800 167.052,166.800 167.247 C 166.800 167.441,167.036 167.600,167.325 167.600 C 167.613 167.600,168.198 167.915,168.625 168.300 C 169.051 168.685,169.940 169.270,170.600 169.600 C 171.260 169.930,172.149 170.515,172.575 170.900 C 173.002 171.285,173.587 171.600,173.875 171.600 C 174.164 171.600,174.400 171.780,174.400 172.000 C 174.400 172.220,174.636 172.400,174.925 172.400 C 175.213 172.400,175.836 172.760,176.308 173.200 C 176.780 173.640,177.444 174.000,177.783 174.000 C 178.122 174.000,178.400 174.180,178.400 174.400 C 178.400 174.620,178.670 174.800,179.000 174.800 C 179.330 174.800,179.600 174.980,179.600 175.200 C 179.600 175.420,179.870 175.600,180.200 175.600 C 180.530 175.600,180.800 175.780,180.800 176.000 C 180.800 176.220,181.145 176.400,181.567 176.400 C 181.988 176.400,182.393 176.535,182.467 176.700 C 182.540 176.865,184.400 178.074,186.600 179.387 C 188.800 180.699,190.690 181.869,190.800 181.987 C 191.164 182.376,193.388 183.646,194.100 183.871 C 194.485 183.993,194.800 184.252,194.800 184.447 C 194.800 184.641,195.036 184.800,195.325 184.800 C 195.613 184.800,196.236 185.160,196.708 185.600 C 197.180 186.040,197.762 186.400,198.000 186.400 C 198.238 186.400,198.816 186.756,199.283 187.192 C 200.118 187.969,200.154 187.970,201.366 187.232 C 202.045 186.819,204.580 185.263,207.000 183.776 C 209.420 182.288,211.804 180.875,212.297 180.635 C 212.790 180.396,213.195 180.065,213.197 179.900 C 213.199 179.735,213.393 179.600,213.628 179.600 C 213.863 179.600,214.841 179.060,215.800 178.400 C 216.759 177.740,217.651 177.200,217.781 177.200 C 217.912 177.200,219.378 176.300,221.039 175.200 C 222.700 174.100,224.148 173.200,224.257 173.200 C 224.367 173.200,225.211 172.705,226.135 172.100 C 227.058 171.495,228.170 170.787,228.607 170.527 C 229.043 170.266,230.840 169.198,232.600 168.154 C 234.360 167.109,236.825 165.567,238.078 164.727 C 239.331 163.887,240.469 163.200,240.606 163.200 C 240.743 163.200,241.641 162.660,242.600 162.000 C 243.559 161.340,244.459 160.800,244.600 160.800 C 244.741 160.800,245.641 160.260,246.600 159.600 C 247.559 158.940,248.522 158.400,248.739 158.400 C 248.956 158.400,249.193 158.259,249.267 158.087 C 249.340 157.915,250.030 157.400,250.800 156.944 C 251.570 156.488,254.180 154.893,256.600 153.400 C 259.020 151.907,261.630 150.330,262.400 149.896 C 263.170 149.462,264.278 148.767,264.862 148.353 C 265.446 147.939,266.039 147.600,266.180 147.600 C 266.321 147.600,267.733 146.739,269.318 145.687 C 271.854 144.003,274.383 142.648,277.000 141.569 C 278.659 140.885,283.529 140.393,284.601 140.800 C 285.179 141.020,286.170 141.200,286.802 141.200 C 287.435 141.200,288.064 141.380,288.200 141.600 C 288.336 141.820,288.769 142.000,289.162 142.000 C 290.045 142.000,294.149 144.645,295.893 146.338 C 297.611 148.006,298.600 149.624,302.075 156.452 C 303.684 159.613,305.093 162.290,305.208 162.400 C 305.322 162.510,306.331 164.400,307.449 166.600 C 308.568 168.800,310.473 172.490,311.683 174.800 C 313.710 178.668,317.036 185.079,323.409 197.400 C 324.775 200.040,327.016 204.360,328.391 207.000 C 329.765 209.640,332.264 214.500,333.945 217.800 C 335.625 221.100,337.135 223.860,337.300 223.933 C 337.465 224.007,337.600 224.397,337.600 224.800 C 337.600 225.203,337.735 225.593,337.900 225.667 C 338.065 225.740,338.752 226.880,339.427 228.200 C 340.102 229.520,342.062 233.300,343.782 236.600 C 350.908 250.268,352.032 252.439,354.655 257.600 C 356.165 260.570,357.491 263.090,357.603 263.200 C 357.715 263.310,358.810 265.380,360.036 267.800 C 362.864 273.379,369.331 285.899,371.813 290.600 C 372.859 292.580,374.734 296.180,375.981 298.600 C 377.227 301.020,378.433 303.360,378.661 303.800 C 378.889 304.240,379.283 305.003,379.538 305.495 C 379.792 305.987,380.000 306.662,380.000 306.995 C 380.000 307.328,380.180 307.600,380.400 307.600 C 380.620 307.600,380.800 308.230,380.800 309.000 C 380.800 309.770,380.980 310.400,381.200 310.400 C 381.420 310.400,381.600 309.770,381.600 309.000 C 381.600 308.230,381.420 307.600,381.200 307.600 C 380.949 307.600,380.800 305.075,380.800 300.824 C 380.800 296.737,380.641 293.949,380.400 293.800 C 380.159 293.651,380.000 290.863,380.000 286.776 C 380.000 282.525,379.851 280.000,379.600 280.000 C 379.349 280.000,379.200 277.400,379.200 273.000 C 379.200 268.600,379.051 266.000,378.800 266.000 C 378.549 266.000,378.400 263.475,378.400 259.224 C 378.400 255.137,378.241 252.349,378.000 252.200 C 377.760 252.051,377.600 249.329,377.600 245.376 C 377.600 241.259,377.450 238.800,377.200 238.800 C 376.949 238.800,376.800 236.200,376.800 231.800 C 376.800 227.400,376.651 224.800,376.400 224.800 C 376.149 224.800,376.000 222.267,376.000 218.000 C 376.000 214.260,375.844 211.200,375.653 211.200 C 375.463 211.200,375.173 205.221,375.010 197.912 C 374.847 190.604,374.553 184.203,374.357 183.686 C 374.161 183.170,374.000 179.980,374.000 176.598 C 374.000 172.929,373.839 170.347,373.600 170.200 C 373.359 170.051,373.200 167.289,373.200 163.256 C 373.200 159.555,373.030 156.390,372.820 156.180 C 372.610 155.970,372.340 152.739,372.219 149.000 C 372.097 145.260,371.900 139.230,371.780 135.600 C 371.659 131.971,371.390 128.830,371.180 128.620 C 370.970 128.410,370.800 125.245,370.800 121.544 C 370.800 117.511,370.641 114.749,370.400 114.600 C 370.160 114.451,370.000 111.737,370.000 107.800 C 370.000 103.863,369.840 101.149,369.600 101.000 C 369.359 100.851,369.200 98.063,369.200 93.976 C 369.200 89.725,369.051 87.200,368.800 87.200 C 368.549 87.200,368.400 84.600,368.400 80.200 C 368.400 75.800,368.251 73.200,368.000 73.200 C 367.749 73.200,367.600 70.675,367.600 66.424 C 367.600 62.337,367.441 59.549,367.200 59.400 C 366.959 59.251,366.800 56.463,366.800 52.376 C 366.800 48.125,366.651 45.600,366.400 45.600 C 366.149 45.600,366.000 43.075,366.000 38.824 C 366.000 34.737,365.841 31.949,365.600 31.800 C 365.360 31.651,365.200 28.937,365.200 25.000 C 365.200 21.063,365.040 18.349,364.800 18.200 C 364.580 18.064,364.400 16.793,364.400 15.376 C 364.400 13.925,364.225 12.800,364.000 12.800 C 363.780 12.800,363.600 12.260,363.600 11.600 C 363.600 10.940,363.464 10.400,363.298 10.400 C 363.131 10.400,362.737 9.815,362.422 9.100 C 362.107 8.385,361.163 7.139,360.325 6.331 C 359.486 5.524,358.800 4.579,358.800 4.231 C 358.800 3.884,358.612 3.600,358.383 3.600 C 358.154 3.600,357.580 3.240,357.108 2.800 C 356.636 2.360,356.013 2.000,355.725 2.000 C 355.436 2.000,355.200 1.820,355.200 1.600 C 355.200 1.380,354.855 1.200,354.433 1.200 C 354.012 1.200,353.592 0.975,353.500 0.700 C 353.260 -0.021,338.340 -0.021,338.100 0.700 C 338.008 0.975,337.628 1.200,337.255 1.200 C 336.882 1.200,336.317 1.560,336.000 2.000 C 335.683 2.440,335.143 2.800,334.800 2.800 C 334.457 2.800,333.917 3.160,333.600 3.600 C 333.283 4.040,332.815 4.400,332.560 4.400 C 332.305 4.400,331.355 5.120,330.448 6.000 C 329.541 6.880,328.619 7.600,328.400 7.600 C 328.180 7.600,328.000 7.780,328.000 8.000 C 328.000 8.220,327.749 8.400,327.441 8.400 C 327.134 8.400,326.330 9.030,325.654 9.800 C 324.978 10.570,324.225 11.200,323.981 11.200 C 323.737 11.200,322.846 11.920,322.000 12.800 C 321.154 13.680,320.300 14.400,320.102 14.400 C 319.904 14.400,318.778 15.300,317.600 16.400 C 316.422 17.500,315.296 18.400,315.098 18.400 C 314.900 18.400,314.046 19.120,313.200 20.000 C 312.354 20.880,311.495 21.600,311.291 21.600 C 310.783 21.600,308.400 23.911,308.400 24.403 C 308.400 24.622,308.122 24.800,307.783 24.800 C 307.152 24.800,306.885 24.988,304.804 26.900 C 304.146 27.505,303.430 28.000,303.214 28.000 C 302.998 28.000,302.011 28.810,301.021 29.800 C 300.031 30.790,299.022 31.600,298.779 31.600 C 298.536 31.600,297.646 32.320,296.800 33.200 C 295.954 34.080,295.082 34.800,294.862 34.800 C 294.642 34.800,293.756 35.520,292.893 36.400 C 292.031 37.280,291.208 38.000,291.064 38.000 C 290.921 38.000,289.885 38.900,288.761 40.000 C 287.638 41.100,286.505 42.000,286.243 42.000 C 285.981 42.000,285.099 42.630,284.282 43.400 C 283.466 44.170,282.640 44.800,282.447 44.800 C 282.254 44.800,281.355 45.520,280.448 46.400 C 279.541 47.280,278.696 48.000,278.571 48.000 C 278.446 48.000,278.109 48.225,277.822 48.500 C 277.536 48.775,276.544 49.630,275.617 50.400 C 274.690 51.170,273.142 52.565,272.177 53.500 C 271.211 54.435,270.222 55.200,269.979 55.200 C 269.736 55.200,268.846 55.920,268.000 56.800 C 267.154 57.680,266.256 58.400,266.003 58.400 C 265.750 58.400,265.297 58.625,264.996 58.900 C 264.696 59.175,263.771 59.940,262.941 60.600 C 262.111 61.260,260.636 62.565,259.663 63.500 C 258.691 64.435,257.724 65.200,257.516 65.200 C 257.308 65.200,256.446 65.920,255.600 66.800 C 254.754 67.680,253.854 68.400,253.600 68.400 C 253.346 68.400,252.446 69.120,251.600 70.000 L 250.063 71.600 200.032 71.600 L 150.001 71.600 148.352 70.000 C 147.445 69.120,146.531 68.400,146.320 68.400 C 146.110 68.400,145.246 67.680,144.400 66.800 C 143.554 65.920,142.682 65.200,142.462 65.200 C 142.242 65.200,141.356 64.480,140.493 63.600 C 139.631 62.720,138.807 62.000,138.663 62.000 C 138.520 62.000,137.734 61.370,136.918 60.600 C 136.101 59.830,135.201 59.200,134.917 59.200 C 134.632 59.200,134.400 59.020,134.400 58.800 C 134.400 58.580,134.206 58.400,133.969 58.400 C 133.731 58.400,132.846 57.680,132.000 56.800 C 131.154 55.920,130.254 55.200,130.000 55.200 C 129.746 55.200,128.846 54.480,128.000 53.600 C 127.154 52.720,126.191 52.000,125.858 52.000 C 125.526 52.000,125.147 51.685,125.017 51.300 C 124.887 50.915,123.930 49.972,122.890 49.205 C 121.851 48.437,120.730 47.529,120.400 47.186 C 120.070 46.843,119.170 46.129,118.400 45.600 C 117.630 45.071,116.685 44.287,116.300 43.858 C 115.915 43.429,115.600 43.235,115.600 43.428 C 115.600 43.620,115.320 43.378,114.977 42.889 C 114.635 42.400,114.117 42.000,113.826 42.000 C 113.535 42.000,112.555 41.280,111.648 40.400 C 110.741 39.520,109.852 38.800,109.672 38.800 C 109.492 38.800,108.982 38.395,108.539 37.900 C 107.542 36.785,105.278 34.800,105.004 34.800 C 104.892 34.800,104.059 34.080,103.152 33.200 C 102.245 32.320,101.339 31.600,101.138 31.600 C 100.938 31.600,100.160 30.986,99.409 30.236 C 98.659 29.486,97.495 28.547,96.823 28.150 C 96.150 27.753,95.600 27.276,95.600 27.090 C 95.600 26.905,95.420 26.864,95.200 27.000 C 94.980 27.136,94.800 26.956,94.800 26.600 C 94.800 26.244,94.653 26.044,94.473 26.155 C 94.293 26.266,93.893 26.007,93.585 25.579 C 93.276 25.150,92.715 24.800,92.339 24.800 C 91.962 24.800,91.549 24.469,91.420 24.064 C 91.292 23.659,90.740 23.089,90.193 22.796 C 89.647 22.504,89.200 22.115,89.200 21.932 C 89.200 21.750,89.006 21.600,88.769 21.600 C 88.531 21.600,87.646 20.880,86.800 20.000 C 85.954 19.120,85.097 18.400,84.895 18.400 C 84.693 18.400,83.670 17.590,82.622 16.600 C 81.574 15.610,80.574 14.800,80.400 14.800 C 80.226 14.800,79.226 13.990,78.178 13.000 C 77.130 12.010,76.113 11.200,75.917 11.200 C 75.722 11.200,75.145 10.750,74.635 10.200 C 74.125 9.650,73.504 9.200,73.254 9.200 C 73.004 9.200,72.800 9.020,72.800 8.800 C 72.800 8.580,72.606 8.400,72.369 8.400 C 72.131 8.400,71.234 7.668,70.374 6.773 C 69.514 5.878,68.628 5.259,68.405 5.397 C 68.182 5.534,68.000 5.367,68.000 5.024 C 68.000 4.681,67.770 4.400,67.488 4.400 C 67.207 4.400,66.717 4.040,66.400 3.600 C 66.083 3.160,65.543 2.800,65.200 2.800 C 64.857 2.800,64.317 2.440,64.000 2.000 C 63.683 1.560,63.118 1.200,62.745 1.200 C 62.372 1.200,61.994 0.983,61.906 0.717 C 61.741 0.224,50.517 -0.132,47.700 0.267 M18.400 308.800 C 18.400 309.460,18.580 310.000,18.800 310.000 C 19.020 310.000,19.200 309.460,19.200 308.800 C 19.200 308.140,19.020 307.600,18.800 307.600 C 18.580 307.600,18.400 308.140,18.400 308.800 M199.000 328.000 C 198.864 328.220,197.863 328.400,196.776 328.400 C 195.689 328.400,194.800 328.580,194.800 328.800 C 194.800 329.020,194.566 329.200,194.280 329.200 C 193.544 329.200,191.607 330.141,191.603 330.500 C 191.601 330.665,191.336 330.800,191.013 330.800 C 189.677 330.800,184.000 337.378,184.000 338.927 C 184.000 339.271,183.820 339.664,183.600 339.800 C 183.380 339.936,183.200 340.656,183.200 341.400 C 183.200 342.144,183.020 342.864,182.800 343.000 C 182.542 343.159,182.400 350.263,182.400 363.000 C 182.400 375.737,182.542 382.841,182.800 383.000 C 183.020 383.136,183.200 383.856,183.200 384.600 C 183.200 385.344,183.380 386.064,183.600 386.200 C 183.820 386.336,184.000 386.797,184.000 387.224 C 184.000 387.651,184.180 388.000,184.400 388.000 C 184.620 388.000,184.800 388.360,184.800 388.800 C 184.800 389.240,184.968 389.600,185.173 389.600 C 185.378 389.600,185.657 389.951,185.794 390.380 C 186.487 392.565,192.915 397.200,195.252 397.200 C 195.637 397.200,196.052 397.361,196.174 397.557 C 196.626 398.290,203.353 398.516,205.275 397.863 C 211.156 395.866,215.381 391.594,217.155 385.851 C 218.307 382.121,218.475 344.546,217.356 340.773 C 215.595 334.834,211.520 330.564,205.522 328.371 C 203.280 327.552,199.413 327.332,199.000 328.000 " stroke="none" fill="#2b4778" fill-rule="evenodd"></path><path id="path2" d="M112.519 142.162 C 111.815 142.418,111.110 142.757,110.953 142.914 C 110.795 143.071,110.247 143.200,109.733 143.200 C 109.220 143.200,108.800 143.350,108.800 143.532 C 108.800 143.715,108.305 144.120,107.700 144.432 C 105.077 145.784,102.407 149.354,99.195 155.800 C 98.428 157.340,97.705 158.690,97.589 158.800 C 97.473 158.910,96.398 160.980,95.200 163.400 C 94.002 165.820,92.924 167.890,92.806 168.000 C 92.687 168.110,90.992 171.350,89.039 175.200 C 87.086 179.050,84.633 183.820,83.588 185.800 C 82.544 187.780,80.724 191.290,79.545 193.600 C 78.365 195.910,77.306 197.890,77.191 198.000 C 77.076 198.110,75.891 200.360,74.558 203.000 C 72.278 207.515,68.316 215.182,63.291 224.800 C 62.085 227.110,59.889 231.340,58.411 234.200 C 56.934 237.060,54.459 241.830,52.911 244.800 C 51.363 247.770,49.040 252.270,47.748 254.800 C 46.457 257.330,45.305 259.490,45.189 259.600 C 45.073 259.710,43.998 261.780,42.800 264.200 C 41.602 266.620,40.527 268.690,40.411 268.800 C 40.295 268.910,38.870 271.610,37.245 274.800 C 34.561 280.068,30.711 287.544,27.150 294.400 C 26.408 295.830,25.665 297.060,25.500 297.133 C 25.335 297.207,25.200 297.601,25.200 298.010 C 25.200 298.418,25.040 298.852,24.844 298.973 C 24.366 299.268,21.422 305.391,20.791 307.400 C 20.515 308.280,20.144 309.360,19.967 309.800 C 19.348 311.337,19.322 316.361,19.932 316.595 C 20.297 316.735,20.429 317.222,20.314 318.005 C 20.218 318.662,20.292 319.200,20.479 319.200 C 20.814 319.200,21.732 321.030,21.777 321.787 C 21.798 322.147,22.646 323.200,24.622 325.319 C 25.897 326.687,27.438 327.896,28.811 328.606 C 29.516 328.971,29.979 329.477,29.869 329.765 C 29.735 330.113,29.962 330.220,30.580 330.102 C 31.247 329.974,31.546 330.150,31.707 330.764 C 31.827 331.224,32.206 331.600,32.550 331.600 C 32.894 331.600,33.817 331.960,34.600 332.400 C 35.383 332.840,36.289 333.200,36.612 333.200 C 36.935 333.200,37.200 333.380,37.200 333.600 C 37.200 333.820,37.661 334.000,38.224 334.000 C 38.804 334.000,39.140 334.173,39.000 334.400 C 38.856 334.633,39.263 334.800,39.976 334.800 C 40.649 334.800,41.200 334.980,41.200 335.200 C 41.200 335.420,41.560 335.600,42.000 335.600 C 42.440 335.600,42.800 335.780,42.800 336.000 C 42.800 336.220,43.162 336.400,43.605 336.400 C 44.471 336.400,46.015 337.148,46.494 337.800 C 46.656 338.020,46.791 338.055,46.794 337.877 C 46.797 337.700,47.295 337.821,47.900 338.147 C 49.632 339.079,56.242 341.600,56.956 341.600 C 57.310 341.600,57.600 341.780,57.600 342.000 C 57.600 342.220,57.949 342.400,58.376 342.400 C 58.803 342.400,59.264 342.580,59.400 342.800 C 59.536 343.020,60.087 343.200,60.624 343.200 C 61.161 343.200,61.600 343.380,61.600 343.600 C 61.600 343.820,61.960 344.000,62.400 344.000 C 62.840 344.000,63.200 344.160,63.200 344.356 C 63.200 344.552,64.010 344.951,65.000 345.243 C 65.990 345.535,66.800 345.915,66.800 346.087 C 66.800 346.259,67.072 346.400,67.405 346.400 C 67.993 346.400,68.418 346.567,70.295 347.538 C 70.787 347.792,71.462 348.000,71.795 348.000 C 72.128 348.000,72.400 348.180,72.400 348.400 C 72.400 348.620,72.760 348.800,73.200 348.800 C 73.640 348.800,74.000 348.980,74.000 349.200 C 74.000 349.420,74.349 349.600,74.776 349.600 C 75.203 349.600,75.664 349.780,75.800 350.000 C 75.936 350.220,76.397 350.400,76.824 350.400 C 77.251 350.400,77.600 350.580,77.600 350.800 C 77.600 351.020,78.039 351.200,78.576 351.200 C 79.113 351.200,79.664 351.380,79.800 351.600 C 79.936 351.820,80.397 352.000,80.824 352.000 C 81.251 352.000,81.600 352.180,81.600 352.400 C 81.600 352.620,81.960 352.800,82.400 352.800 C 82.840 352.800,83.200 352.942,83.200 353.115 C 83.200 353.288,83.602 353.460,84.094 353.497 C 84.586 353.534,85.051 353.752,85.127 353.982 C 85.204 354.212,85.702 354.400,86.233 354.400 C 86.765 354.400,87.200 354.580,87.200 354.800 C 87.200 355.020,87.449 355.200,87.754 355.200 C 88.059 355.200,88.811 355.461,89.426 355.780 C 90.040 356.098,90.691 356.268,90.871 356.156 C 91.052 356.044,91.200 356.122,91.200 356.330 C 91.200 356.537,91.605 356.838,92.100 357.000 C 92.595 357.161,93.090 357.333,93.200 357.382 C 95.765 358.536,96.507 358.800,97.187 358.800 C 97.634 358.800,98.000 358.980,98.000 359.200 C 98.000 359.420,98.272 359.600,98.605 359.600 C 99.193 359.600,99.618 359.767,101.495 360.738 C 101.987 360.992,102.662 361.200,102.995 361.200 C 103.328 361.200,103.600 361.380,103.600 361.600 C 103.600 361.820,103.960 362.000,104.400 362.000 C 104.840 362.000,105.200 362.180,105.200 362.400 C 105.200 362.620,105.740 362.800,106.400 362.800 C 107.060 362.800,107.600 362.980,107.600 363.200 C 107.600 363.420,107.949 363.600,108.376 363.600 C 108.803 363.600,109.264 363.780,109.400 364.000 C 109.536 364.220,109.997 364.400,110.424 364.400 C 110.851 364.400,111.200 364.580,111.200 364.800 C 111.200 365.020,111.434 365.200,111.720 365.200 C 112.456 365.200,114.393 366.141,114.397 366.500 C 114.399 366.665,114.749 366.800,115.176 366.800 C 115.603 366.800,116.064 366.980,116.200 367.200 C 116.336 367.420,116.887 367.600,117.424 367.600 C 117.961 367.600,118.400 367.780,118.400 368.000 C 118.400 368.220,118.760 368.400,119.200 368.400 C 119.640 368.400,120.000 368.591,120.000 368.824 C 120.000 369.057,120.148 369.156,120.329 369.044 C 120.509 368.932,121.160 369.102,121.774 369.420 C 122.389 369.739,123.141 370.000,123.446 370.000 C 123.751 370.000,124.000 370.180,124.000 370.400 C 124.000 370.620,124.461 370.800,125.024 370.800 C 125.695 370.800,125.949 370.959,125.762 371.262 C 125.605 371.516,125.646 371.618,125.854 371.490 C 126.062 371.362,126.765 371.507,127.416 371.814 C 129.345 372.723,130.979 373.334,131.300 373.265 C 131.465 373.229,131.600 373.380,131.600 373.600 C 131.600 373.820,131.849 374.000,132.154 374.000 C 132.459 374.000,133.224 374.269,133.854 374.598 C 134.484 374.926,135.394 375.196,135.876 375.198 C 136.358 375.199,136.864 375.380,137.000 375.600 C 137.136 375.820,137.597 376.000,138.024 376.000 C 138.451 376.000,138.800 376.180,138.800 376.400 C 138.800 376.620,139.145 376.800,139.567 376.800 C 139.988 376.800,140.393 376.978,140.467 377.197 C 140.540 377.415,141.095 377.634,141.700 377.684 C 142.305 377.734,142.800 377.915,142.800 378.087 C 142.800 378.259,143.160 378.400,143.600 378.400 C 144.040 378.400,144.400 378.560,144.400 378.756 C 144.400 378.952,145.210 379.351,146.200 379.643 C 147.190 379.935,148.000 380.315,148.000 380.487 C 148.000 380.659,148.360 380.800,148.800 380.800 C 149.240 380.800,149.600 380.980,149.600 381.200 C 149.600 381.420,149.960 381.600,150.400 381.600 C 150.840 381.600,151.200 381.780,151.200 382.000 C 151.200 382.220,151.740 382.400,152.400 382.400 C 153.060 382.400,153.600 382.580,153.600 382.800 C 153.600 383.020,154.061 383.200,154.624 383.200 C 155.204 383.200,155.540 383.373,155.400 383.600 C 155.256 383.833,155.663 384.000,156.376 384.000 C 157.049 384.000,157.600 384.136,157.600 384.302 C 157.600 384.469,158.185 384.855,158.900 385.161 C 159.615 385.467,160.909 386.051,161.775 386.459 C 162.641 386.866,163.586 387.200,163.875 387.200 C 164.164 387.200,164.400 387.380,164.400 387.600 C 164.400 387.820,164.749 388.000,165.176 388.000 C 165.603 388.000,166.064 388.180,166.200 388.400 C 166.336 388.620,166.780 388.800,167.186 388.800 C 167.825 388.800,168.725 389.174,172.051 390.823 C 172.409 391.000,173.354 391.268,174.151 391.417 C 174.948 391.567,175.600 391.849,175.600 392.045 C 175.600 392.240,175.949 392.400,176.376 392.400 C 176.803 392.400,177.264 392.580,177.400 392.800 C 177.536 393.020,177.997 393.200,178.424 393.200 C 178.851 393.200,179.200 393.380,179.200 393.600 C 179.200 393.820,179.465 394.000,179.788 394.000 C 180.111 394.000,181.017 394.360,181.800 394.800 C 182.583 395.240,183.568 395.600,183.989 395.600 C 184.409 395.600,184.864 395.780,185.000 396.000 C 185.136 396.220,185.607 396.400,186.047 396.400 C 186.487 396.400,186.736 396.580,186.600 396.800 C 186.460 397.026,186.788 397.200,187.353 397.200 C 187.903 397.200,188.464 397.380,188.600 397.600 C 188.736 397.820,189.197 398.000,189.624 398.000 C 190.051 398.000,190.400 398.140,190.400 398.311 C 190.400 398.908,195.057 400.000,197.600 400.000 C 200.636 400.000,200.440 399.431,197.200 398.841 C 193.469 398.162,192.637 397.912,191.538 397.143 C 190.954 396.734,190.356 396.400,190.210 396.400 C 190.063 396.400,189.715 396.175,189.437 395.900 C 189.159 395.625,188.436 395.040,187.831 394.600 C 186.108 393.349,183.367 389.258,182.337 386.400 C 180.886 382.374,180.867 344.143,182.314 339.957 C 183.960 335.195,187.034 331.395,190.751 329.529 C 191.768 329.018,192.690 328.492,192.800 328.360 C 193.121 327.974,195.220 327.529,197.700 327.322 L 200.000 327.129 200.000 257.994 L 200.000 188.859 198.900 188.299 C 197.732 187.705,188.422 182.018,184.906 179.750 C 183.755 179.008,182.630 178.400,182.406 178.400 C 182.183 178.400,182.000 178.220,182.000 178.000 C 182.000 177.780,181.826 177.600,181.613 177.600 C 181.238 177.600,176.688 174.828,175.717 174.008 C 175.451 173.784,175.133 173.600,175.011 173.600 C 174.786 173.600,166.726 168.741,160.400 164.792 C 158.530 163.624,156.596 162.474,156.103 162.235 C 155.610 161.996,155.205 161.665,155.203 161.500 C 155.201 161.335,155.007 161.200,154.772 161.200 C 154.537 161.200,153.559 160.660,152.600 160.000 C 151.641 159.340,150.663 158.800,150.428 158.800 C 150.193 158.800,150.000 158.620,150.000 158.400 C 150.000 158.180,149.826 158.000,149.613 158.000 C 149.283 158.000,144.997 155.427,143.798 154.508 C 143.576 154.339,142.586 153.762,141.598 153.228 C 140.609 152.693,138.309 151.298,136.486 150.128 C 134.663 148.957,133.079 148.000,132.964 148.000 C 132.850 148.000,131.696 147.280,130.400 146.400 C 129.104 145.520,127.854 144.800,127.622 144.800 C 127.390 144.800,127.199 144.665,127.197 144.500 C 127.193 144.141,125.256 143.200,124.520 143.200 C 124.234 143.200,124.000 143.020,124.000 142.800 C 124.000 142.580,123.471 142.400,122.824 142.400 C 122.177 142.400,121.536 142.220,121.400 142.000 C 121.062 141.454,114.116 141.580,112.519 142.162 " stroke="none" fill="#d3e3f3" fill-rule="evenodd"></path><path id="path3" d="M116.500 141.087 C 117.105 141.178,118.095 141.178,118.700 141.087 C 119.305 140.995,118.810 140.920,117.600 140.920 C 116.390 140.920,115.895 140.995,116.500 141.087 M280.000 141.179 C 279.386 141.363,280.265 141.463,282.280 141.439 C 284.084 141.418,285.254 141.278,284.880 141.128 C 283.990 140.772,281.265 140.800,280.000 141.179 M112.021 141.579 C 111.646 141.816,112.070 141.865,113.221 141.718 C 114.199 141.592,115.075 141.425,115.167 141.345 C 115.542 141.019,112.555 141.240,112.021 141.579 M120.600 141.470 C 121.040 141.567,122.203 141.908,123.185 142.228 C 124.166 142.548,124.796 142.652,124.585 142.459 C 124.009 141.935,121.597 141.194,120.640 141.246 C 119.838 141.291,119.836 141.301,120.600 141.470 M109.400 142.614 C 108.740 142.917,108.470 143.166,108.800 143.168 C 109.130 143.170,109.850 142.914,110.400 142.600 C 111.665 141.877,110.989 141.887,109.400 142.614 M289.600 142.571 C 289.600 142.764,291.995 144.001,292.361 143.997 C 292.493 143.996,292.060 143.637,291.400 143.200 C 290.246 142.436,289.600 142.210,289.600 142.571 M125.233 142.929 C 125.893 143.439,129.200 145.194,129.200 145.034 C 129.200 144.776,125.836 142.800,125.398 142.800 C 125.216 142.800,125.142 142.858,125.233 142.929 M104.663 146.102 C 103.308 147.478,101.875 149.188,101.477 149.902 C 100.356 151.916,100.931 151.435,102.539 149.013 C 103.338 147.810,104.909 146.100,106.032 145.213 C 107.154 144.326,107.859 143.600,107.599 143.600 C 107.339 143.600,106.018 144.726,104.663 146.102 M269.800 145.600 C 268.480 146.479,267.538 147.198,267.706 147.199 C 268.049 147.200,272.400 144.368,272.400 144.143 C 272.400 143.887,272.232 143.981,269.800 145.600 M292.800 144.373 C 292.800 144.608,292.959 144.800,293.154 144.800 C 293.348 144.800,294.454 145.745,295.610 146.900 C 296.767 148.055,297.404 148.515,297.026 147.923 C 296.196 146.624,292.800 143.771,292.800 144.373 M129.820 145.553 C 130.621 146.295,136.915 150.018,137.085 149.849 C 137.183 149.751,136.394 149.171,135.331 148.561 C 134.269 147.951,132.648 146.945,131.728 146.326 C 130.139 145.256,129.005 144.796,129.820 145.553 M264.881 148.572 C 263.125 149.814,262.697 150.345,264.200 149.418 C 266.278 148.135,266.991 147.599,266.589 147.620 C 266.375 147.630,265.607 148.059,264.881 148.572 M260.881 150.972 C 259.125 152.214,258.697 152.745,260.200 151.818 C 262.278 150.535,262.991 149.999,262.589 150.020 C 262.375 150.030,261.607 150.459,260.881 150.972 M138.800 150.914 C 138.800 151.155,141.906 153.200,142.271 153.200 C 142.430 153.200,142.389 153.049,142.180 152.864 C 141.552 152.308,138.800 150.721,138.800 150.914 M142.800 153.323 C 142.800 153.530,145.492 155.329,147.437 156.421 C 148.215 156.858,149.335 157.515,149.926 157.881 C 150.516 158.247,150.820 158.349,150.600 158.107 C 150.268 157.742,148.833 156.830,143.100 153.336 C 142.935 153.235,142.800 153.229,142.800 153.323 M97.434 157.474 C 96.653 158.944,96.089 160.223,96.181 160.315 C 96.273 160.407,96.992 159.204,97.779 157.641 C 99.592 154.042,99.325 153.913,97.434 157.474 M301.879 157.100 C 302.167 157.894,303.200 159.497,303.200 159.150 C 303.200 158.802,301.963 156.400,301.783 156.400 C 301.696 156.400,301.739 156.715,301.879 157.100 M247.600 159.200 C 246.610 159.858,245.939 160.397,246.109 160.398 C 246.457 160.400,249.600 158.374,249.600 158.147 C 249.600 157.892,249.442 157.975,247.600 159.200 M153.011 159.739 C 154.919 161.041,156.000 161.678,156.000 161.499 C 156.000 161.245,152.904 159.200,152.520 159.200 C 152.356 159.200,152.577 159.442,153.011 159.739 M95.042 162.037 C 94.147 163.830,94.253 164.051,95.257 162.483 C 95.720 161.759,96.006 161.073,95.892 160.958 C 95.777 160.844,95.395 161.329,95.042 162.037 M243.000 162.000 C 242.340 162.437,241.980 162.792,242.200 162.788 C 242.601 162.782,244.776 161.223,244.400 161.212 C 244.290 161.208,243.660 161.563,243.000 162.000 M158.211 162.939 C 160.119 164.241,161.200 164.878,161.200 164.699 C 161.200 164.445,158.104 162.400,157.720 162.400 C 157.556 162.400,157.777 162.642,158.211 162.939 M238.362 164.841 C 236.953 165.744,235.620 166.677,235.400 166.914 C 235.180 167.152,235.540 167.007,236.200 166.591 C 236.860 166.176,238.379 165.243,239.576 164.518 C 240.774 163.793,241.566 163.200,241.338 163.200 C 241.111 163.200,239.771 163.938,238.362 164.841 M305.200 163.250 C 305.200 163.598,306.437 166.000,306.617 166.000 C 306.704 166.000,306.661 165.685,306.521 165.300 C 306.233 164.506,305.200 162.903,305.200 163.250 M162.200 165.443 C 163.156 166.182,165.200 167.285,165.200 167.063 C 165.200 166.823,162.059 164.798,161.709 164.813 C 161.539 164.820,161.760 165.103,162.200 165.443 M306.800 166.478 C 306.800 166.605,307.069 167.224,307.398 167.854 C 307.726 168.484,307.990 168.730,307.985 168.400 C 307.979 168.070,307.710 167.451,307.387 167.024 C 307.064 166.596,306.800 166.351,306.800 166.478 M92.267 167.500 C 91.331 169.062,85.996 179.704,86.301 179.400 C 86.831 178.872,92.901 167.200,92.645 167.200 C 92.536 167.200,92.366 167.335,92.267 167.500 M166.200 167.796 C 167.094 168.539,169.628 169.909,169.000 169.310 C 168.780 169.100,167.880 168.524,167.000 168.030 C 166.120 167.535,165.760 167.430,166.200 167.796 M233.200 168.036 C 232.536 168.579,232.469 168.715,233.000 168.440 C 234.305 167.766,235.028 167.212,234.600 167.215 C 234.380 167.217,233.750 167.586,233.200 168.036 M169.600 169.697 C 169.600 169.950,173.905 172.800,174.287 172.800 C 174.564 172.800,173.392 171.956,170.700 170.218 C 170.095 169.828,169.600 169.593,169.600 169.697 M175.400 173.407 C 175.840 173.766,176.560 174.235,177.000 174.451 L 177.800 174.844 177.000 174.193 C 176.560 173.834,175.840 173.365,175.400 173.149 L 174.600 172.756 175.400 173.407 M220.884 175.466 C 219.940 176.035,219.248 176.581,219.347 176.680 C 219.524 176.857,222.800 174.833,222.800 174.547 C 222.800 174.321,222.717 174.360,220.884 175.466 M178.766 175.482 C 180.402 176.698,183.205 178.234,182.000 177.253 C 181.450 176.806,180.280 176.063,179.400 175.602 C 178.214 174.980,178.050 174.949,178.766 175.482 M215.807 178.622 C 214.711 179.380,213.959 180.000,214.135 180.000 C 214.312 180.000,215.208 179.487,216.128 178.859 C 217.048 178.232,218.070 177.616,218.400 177.491 C 218.933 177.288,218.933 177.262,218.400 177.254 C 218.070 177.248,216.903 177.864,215.807 178.622 M185.011 179.339 C 186.919 180.641,188.000 181.278,188.000 181.099 C 188.000 180.845,184.904 178.800,184.520 178.800 C 184.356 178.800,184.577 179.042,185.011 179.339 M210.900 181.646 C 209.537 182.519,209.095 183.106,210.300 182.443 C 211.218 181.939,212.656 180.827,212.400 180.819 C 212.290 180.816,211.615 181.188,210.900 181.646 M189.000 181.843 C 189.956 182.582,192.000 183.685,192.000 183.463 C 192.000 183.223,188.859 181.198,188.509 181.213 C 188.339 181.220,188.560 181.503,189.000 181.843 M83.429 184.343 C 82.525 186.093,82.656 186.441,83.623 184.855 C 84.074 184.115,84.357 183.423,84.251 183.318 C 84.145 183.212,83.776 183.673,83.429 184.343 M206.400 184.436 C 205.736 184.979,205.669 185.115,206.200 184.840 C 207.505 184.166,208.228 183.612,207.800 183.615 C 207.580 183.617,206.950 183.986,206.400 184.436 M194.200 185.011 C 194.640 185.369,195.540 185.926,196.200 186.250 C 197.322 186.801,197.348 186.797,196.600 186.189 C 196.160 185.831,195.260 185.274,194.600 184.950 C 193.478 184.399,193.452 184.403,194.200 185.011 M316.404 185.000 C 316.405 185.220,316.763 185.940,317.200 186.600 C 318.236 188.164,318.237 187.608,317.201 185.910 C 316.762 185.189,316.404 184.780,316.404 185.000 M202.400 186.800 C 201.850 187.230,201.580 187.582,201.800 187.582 C 202.020 187.582,202.650 187.230,203.200 186.800 C 203.750 186.370,204.020 186.018,203.800 186.018 C 203.580 186.018,202.950 186.370,202.400 186.800 M81.781 187.637 C 81.429 188.318,81.212 188.945,81.299 189.032 C 81.386 189.119,81.756 188.562,82.122 187.795 C 82.944 186.070,82.659 185.938,81.781 187.637 M198.400 187.544 C 199.453 188.427,200.600 188.647,200.977 188.037 C 201.100 187.838,200.859 187.764,200.441 187.873 C 200.024 187.983,199.168 187.764,198.541 187.389 L 197.400 186.705 198.400 187.544 M80.214 190.635 C 79.841 191.204,79.627 191.761,79.739 191.872 C 79.850 191.983,80.229 191.518,80.581 190.837 C 81.359 189.333,81.144 189.215,80.214 190.635 M319.076 190.254 C 319.223 190.636,320.031 192.200,320.871 193.730 C 321.712 195.259,322.400 196.655,322.400 196.832 C 322.400 197.008,322.578 197.263,322.795 197.397 C 323.349 197.739,322.921 196.731,321.129 193.470 C 320.288 191.941,319.600 190.545,319.600 190.368 C 319.600 190.192,319.422 189.937,319.205 189.803 C 318.969 189.657,318.917 189.839,319.076 190.254 M76.459 197.900 C 76.256 198.285,75.434 199.840,74.633 201.355 C 73.832 202.870,73.243 204.176,73.324 204.257 C 73.404 204.338,74.319 202.783,75.356 200.802 C 76.392 198.821,77.148 197.200,77.034 197.200 C 76.921 197.200,76.662 197.515,76.459 197.900 M323.203 198.090 C 323.201 198.250,323.559 198.970,323.999 199.690 C 324.438 200.411,324.796 200.820,324.796 200.600 C 324.795 200.380,324.437 199.660,324.000 199.000 C 323.563 198.340,323.204 197.931,323.203 198.090 M71.224 208.000 C 70.318 209.760,69.669 211.200,69.783 211.200 C 69.975 211.200,72.234 207.045,72.881 205.500 C 73.618 203.740,72.719 205.097,71.224 208.000 M67.029 215.943 C 66.125 217.693,66.256 218.041,67.223 216.455 C 67.674 215.715,67.957 215.023,67.851 214.918 C 67.745 214.812,67.376 215.273,67.029 215.943 M65.400 219.200 C 65.059 219.860,64.869 220.400,64.979 220.400 C 65.089 220.400,65.459 219.860,65.800 219.200 C 66.141 218.540,66.331 218.000,66.221 218.000 C 66.111 218.000,65.741 218.540,65.400 219.200 M63.880 222.080 C 63.492 222.756,63.257 223.391,63.358 223.491 C 63.459 223.592,63.838 223.101,64.200 222.400 C 65.057 220.743,64.797 220.483,63.880 222.080 M338.595 227.800 C 340.050 230.660,341.422 233.180,341.645 233.400 C 341.867 233.620,340.859 231.460,339.405 228.600 C 337.950 225.740,336.578 223.220,336.355 223.000 C 336.133 222.780,337.141 224.940,338.595 227.800 M59.415 230.776 C 58.584 232.120,56.806 235.739,56.920 235.854 C 56.996 235.930,57.716 234.734,58.519 233.196 C 59.727 230.884,60.292 229.356,59.415 230.776 M55.200 238.800 C 54.534 240.120,54.078 241.200,54.188 241.200 C 54.298 241.200,54.934 240.120,55.600 238.800 C 56.266 237.480,56.722 236.400,56.612 236.400 C 56.502 236.400,55.866 237.480,55.200 238.800 M50.584 247.658 C 49.338 250.156,48.494 252.020,48.709 251.800 C 49.340 251.153,53.233 243.499,53.032 243.299 C 52.931 243.198,51.830 245.160,50.584 247.658 M47.480 253.680 C 47.092 254.356,46.857 254.991,46.958 255.091 C 47.059 255.192,47.438 254.701,47.800 254.000 C 48.657 252.343,48.397 252.083,47.480 253.680 M352.800 255.200 C 353.466 256.520,354.102 257.600,354.212 257.600 C 354.322 257.600,353.866 256.520,353.200 255.200 C 352.534 253.880,351.898 252.800,351.788 252.800 C 351.678 252.800,352.134 253.880,352.800 255.200 M354.400 258.096 C 354.400 258.513,356.140 261.593,356.291 261.442 C 356.373 261.361,356.051 260.598,355.577 259.747 C 354.651 258.087,354.400 257.735,354.400 258.096 M44.338 259.700 C 42.996 262.162,42.041 264.174,42.158 264.292 C 42.230 264.364,42.954 263.157,43.766 261.611 C 44.579 260.065,45.150 258.800,45.036 258.800 C 44.922 258.800,44.607 259.205,44.338 259.700 M41.029 266.061 C 40.683 266.755,40.400 267.425,40.400 267.550 C 40.400 267.897,41.433 266.294,41.721 265.500 C 42.136 264.355,41.706 264.704,41.029 266.061 M39.200 269.600 C 38.751 270.480,38.474 271.200,38.584 271.200 C 38.694 271.200,39.151 270.480,39.600 269.600 C 40.049 268.720,40.326 268.000,40.216 268.000 C 40.106 268.000,39.649 268.720,39.200 269.600 M35.840 276.040 C 35.445 276.708,35.211 277.344,35.319 277.453 C 35.428 277.561,35.806 277.069,36.160 276.360 C 36.993 274.690,36.770 274.466,35.840 276.040 M33.400 280.800 C 32.624 282.340,32.080 283.600,32.190 283.600 C 32.300 283.600,33.024 282.340,33.800 280.800 C 34.576 279.260,35.120 278.000,35.010 278.000 C 34.900 278.000,34.176 279.260,33.400 280.800 M370.640 289.499 C 371.683 291.533,372.597 293.136,372.672 293.061 C 372.847 292.886,369.685 286.727,369.150 286.200 C 368.926 285.980,369.597 287.464,370.640 289.499 M27.821 291.424 C 27.452 291.988,27.211 292.632,27.285 292.856 C 27.360 293.081,27.729 292.620,28.104 291.832 C 28.903 290.156,28.774 289.970,27.821 291.424 M26.104 294.674 C 25.417 296.153,25.694 296.225,26.544 294.788 C 26.930 294.134,27.100 293.601,26.923 293.603 C 26.745 293.605,26.377 294.087,26.104 294.674 M373.600 295.200 C 374.049 296.080,374.506 296.800,374.616 296.800 C 374.726 296.800,374.449 296.080,374.000 295.200 C 373.551 294.320,373.094 293.600,372.984 293.600 C 372.874 293.600,373.151 294.320,373.600 295.200 M22.622 301.500 C 20.987 304.640,19.985 306.939,20.487 306.400 C 20.873 305.985,24.815 298.000,24.634 298.000 C 24.529 298.000,23.624 299.575,22.622 301.500 M19.700 307.423 C 18.927 308.263,19.064 309.107,19.846 308.325 C 20.202 307.969,20.427 307.499,20.346 307.279 C 20.262 307.047,19.990 307.107,19.700 307.423 M379.600 307.502 C 379.600 307.722,379.870 308.126,380.200 308.400 C 380.535 308.678,380.800 308.721,380.800 308.498 C 380.800 308.278,380.530 307.874,380.200 307.600 C 379.865 307.322,379.600 307.279,379.600 307.502 M380.704 312.200 C 380.952 316.196,381.445 316.898,381.558 313.416 C 381.606 311.911,381.475 310.800,381.249 310.800 C 381.033 310.800,380.777 310.395,380.681 309.900 C 380.585 309.405,380.595 310.440,380.704 312.200 M18.400 314.400 C 18.400 315.396,18.558 315.950,18.800 315.800 C 19.020 315.664,19.200 315.034,19.200 314.400 C 19.200 313.766,19.020 313.136,18.800 313.000 C 18.558 312.850,18.400 313.404,18.400 314.400 M19.200 318.576 C 19.200 318.893,19.380 319.264,19.600 319.400 C 19.820 319.536,20.000 319.277,20.000 318.824 C 20.000 318.371,19.820 318.000,19.600 318.000 C 19.380 318.000,19.200 318.259,19.200 318.576 M380.000 318.600 C 380.000 318.930,380.180 319.200,380.400 319.200 C 380.620 319.200,380.800 318.930,380.800 318.600 C 380.800 318.270,380.620 318.000,380.400 318.000 C 380.180 318.000,380.000 318.270,380.000 318.600 M378.100 322.598 C 377.499 323.281,377.448 324.000,378.000 324.000 C 378.220 324.000,378.400 323.730,378.400 323.400 C 378.400 323.070,378.580 322.800,378.800 322.800 C 379.020 322.800,379.200 322.620,379.200 322.400 C 379.200 321.837,378.689 321.929,378.100 322.598 M23.467 325.467 C 23.347 325.587,23.698 326.135,24.248 326.685 C 24.798 327.235,25.347 327.587,25.467 327.467 C 25.587 327.347,25.235 326.798,24.685 326.248 C 24.135 325.698,23.587 325.347,23.467 325.467 M375.260 326.251 C 374.743 326.802,374.390 327.324,374.477 327.410 C 374.669 327.603,376.800 325.808,376.800 325.453 C 376.800 324.949,376.181 325.269,375.260 326.251 M198.100 327.476 C 198.485 327.576,199.115 327.576,199.500 327.476 C 199.885 327.375,199.570 327.293,198.800 327.293 C 198.030 327.293,197.715 327.375,198.100 327.476 M202.833 327.344 C 202.925 327.423,203.540 327.608,204.200 327.756 C 205.076 327.952,205.238 327.915,204.800 327.618 C 204.260 327.253,202.432 326.998,202.833 327.344 M195.200 328.000 C 194.396 328.257,194.357 328.323,195.000 328.332 C 195.440 328.338,196.160 328.189,196.600 328.000 C 197.619 327.562,196.568 327.562,195.200 328.000 M372.000 328.800 C 372.000 329.020,372.270 329.200,372.600 329.200 C 372.930 329.200,373.200 329.020,373.200 328.800 C 373.200 328.580,372.930 328.400,372.600 328.400 C 372.270 328.400,372.000 328.580,372.000 328.800 M190.156 330.242 C 187.583 331.965,184.009 335.742,184.493 336.227 C 184.598 336.331,185.159 335.697,185.740 334.818 C 186.674 333.407,189.230 331.125,191.447 329.724 C 191.861 329.461,192.090 329.236,191.956 329.224 C 191.822 329.211,191.012 329.669,190.156 330.242 M370.400 329.600 C 370.400 329.820,370.670 330.000,371.000 330.000 C 371.330 330.000,371.600 329.820,371.600 329.600 C 371.600 329.380,371.330 329.200,371.000 329.200 C 370.670 329.200,370.400 329.380,370.400 329.600 M213.201 333.005 C 214.192 334.102,215.329 335.450,215.728 336.000 C 216.426 336.961,216.426 336.952,215.727 335.759 C 214.862 334.281,213.286 332.431,212.190 331.605 C 211.756 331.278,212.211 331.908,213.201 333.005 M183.473 337.900 C 182.587 339.677,181.920 342.574,182.107 343.832 C 182.270 344.928,182.284 344.914,182.344 343.600 C 182.414 342.090,183.277 338.951,183.988 337.622 C 184.230 337.170,184.336 336.800,184.224 336.800 C 184.112 336.800,183.774 337.295,183.473 337.900 M218.200 363.000 C 218.200 374.880,218.319 383.700,218.465 382.600 C 218.611 381.500,218.730 372.680,218.730 363.000 C 218.730 353.320,218.611 344.500,218.465 343.400 C 218.319 342.300,218.200 351.120,218.200 363.000 M182.006 382.833 C 182.009 383.805,182.185 384.870,182.396 385.200 C 182.652 385.601,182.698 385.070,182.534 383.600 C 182.227 380.852,181.998 380.520,182.006 382.833 M217.467 385.467 C 217.320 385.613,217.211 386.108,217.225 386.567 C 217.249 387.333,217.282 387.323,217.634 386.442 C 218.026 385.463,217.944 384.989,217.467 385.467 M182.800 386.344 C 182.799 388.194,187.417 394.371,189.798 395.703 C 190.173 395.913,189.293 394.916,187.844 393.488 C 186.093 391.762,184.805 390.037,184.005 388.346 C 183.343 386.946,182.800 386.045,182.800 386.344 M215.251 390.500 C 214.803 391.215,213.971 392.295,213.402 392.900 C 212.833 393.505,212.540 394.000,212.750 394.000 C 213.079 394.000,215.296 391.205,216.160 389.700 C 216.793 388.599,216.011 389.286,215.251 390.500 M190.800 396.190 C 190.800 396.424,193.039 397.601,193.480 397.599 C 193.656 397.598,193.211 397.238,192.490 396.799 C 191.151 395.982,190.800 395.856,190.800 396.190 M207.615 397.054 C 206.634 397.574,206.094 397.999,206.415 397.998 C 206.737 397.997,207.720 397.552,208.600 397.010 C 210.614 395.770,209.984 395.798,207.615 397.054 M194.600 398.000 C 195.040 398.189,195.670 398.344,196.000 398.344 C 196.378 398.344,196.304 398.217,195.800 398.000 C 195.360 397.811,194.730 397.656,194.400 397.656 C 194.022 397.656,194.096 397.783,194.600 398.000 M199.308 398.876 C 200.138 399.049,201.758 399.043,202.908 398.863 C 204.816 398.563,204.683 398.535,201.400 398.548 C 198.614 398.558,198.141 398.633,199.308 398.876 " stroke="none" fill="#6c89b0" fill-rule="evenodd"></path><path id="path4" d="M114.000 140.706 C 114.000 140.874,115.530 141.009,117.400 141.006 C 119.270 141.003,120.800 140.865,120.800 140.700 C 120.800 140.535,119.270 140.400,117.400 140.400 C 115.530 140.400,114.000 140.538,114.000 140.706 M110.800 141.600 C 110.800 142.101,111.224 142.101,112.000 141.600 C 112.485 141.286,112.428 141.211,111.700 141.206 C 111.205 141.203,110.800 141.380,110.800 141.600 M122.600 141.600 C 123.701 142.073,124.092 142.073,123.800 141.600 C 123.664 141.380,123.158 141.213,122.676 141.228 C 121.831 141.255,121.829 141.269,122.600 141.600 M277.045 141.528 C 276.933 141.708,277.373 141.777,278.021 141.682 C 278.670 141.587,279.200 141.440,279.200 141.355 C 279.200 141.050,277.243 141.207,277.045 141.528 M286.100 141.476 C 286.485 141.576,287.115 141.576,287.500 141.476 C 287.885 141.375,287.570 141.293,286.800 141.293 C 286.030 141.293,285.715 141.375,286.100 141.476 M127.200 143.661 C 127.970 144.132,129.140 144.827,129.800 145.206 C 130.460 145.584,132.530 146.843,134.400 148.003 C 146.147 155.292,148.800 156.843,148.800 156.423 C 148.800 156.227,148.260 155.828,147.600 155.536 C 146.940 155.244,146.400 154.869,146.400 154.702 C 146.400 154.536,146.164 154.400,145.875 154.400 C 145.587 154.400,144.964 154.040,144.492 153.600 C 144.020 153.160,143.438 152.800,143.200 152.800 C 142.962 152.800,142.380 152.440,141.908 152.000 C 141.436 151.560,140.813 151.200,140.525 151.200 C 140.236 151.200,140.000 151.020,140.000 150.800 C 140.000 150.580,139.807 150.400,139.572 150.400 C 139.337 150.400,138.359 149.860,137.400 149.200 C 136.441 148.540,135.571 148.000,135.468 148.000 C 135.365 148.000,134.137 147.287,132.740 146.416 C 128.684 143.887,126.732 142.800,126.250 142.801 C 126.002 142.802,126.430 143.189,127.200 143.661 M104.254 145.732 C 103.014 146.904,102.000 148.074,102.000 148.332 C 102.000 148.589,101.847 148.800,101.660 148.800 C 101.473 148.800,100.709 150.015,99.962 151.500 C 99.215 152.985,98.468 154.260,98.302 154.333 C 98.136 154.407,98.000 154.686,98.000 154.954 C 98.000 155.663,97.051 157.593,96.700 157.597 C 96.535 157.599,96.400 157.860,96.400 158.179 C 96.400 158.497,95.757 159.854,94.972 161.194 C 94.186 162.534,93.609 163.828,93.690 164.069 C 93.770 164.311,94.749 162.729,95.864 160.554 C 101.544 149.479,102.660 147.695,105.446 145.243 C 106.473 144.339,107.132 143.600,106.911 143.600 C 106.690 143.600,105.494 144.559,104.254 145.732 M258.100 152.446 C 256.737 153.319,256.295 153.906,257.500 153.243 C 258.418 152.739,259.856 151.627,259.600 151.619 C 259.490 151.616,258.815 151.988,258.100 152.446 M253.600 155.200 C 252.610 155.858,251.939 156.397,252.109 156.398 C 252.457 156.400,255.600 154.374,255.600 154.147 C 255.600 153.892,255.442 153.975,253.600 155.200 M150.000 157.600 C 151.118 158.474,151.600 158.595,151.600 158.000 C 151.600 157.780,151.330 157.600,151.000 157.600 C 150.670 157.600,150.400 157.420,150.400 157.200 C 150.400 156.980,150.085 156.804,149.700 156.809 C 149.133 156.816,149.190 156.966,150.000 157.600 M153.200 159.343 C 153.200 159.542,157.531 162.400,157.832 162.400 C 157.967 162.400,158.554 162.739,159.138 163.153 C 159.722 163.567,160.830 164.264,161.600 164.702 C 162.370 165.140,165.250 166.895,168.000 168.603 C 175.630 173.341,176.800 174.009,176.800 173.623 C 176.800 173.427,176.260 173.028,175.600 172.736 C 174.940 172.444,174.400 172.069,174.400 171.902 C 174.400 171.736,174.164 171.600,173.875 171.600 C 173.587 171.600,173.002 171.285,172.575 170.900 C 172.149 170.515,171.260 169.930,170.600 169.600 C 169.940 169.270,169.051 168.685,168.625 168.300 C 168.198 167.915,167.613 167.600,167.325 167.600 C 167.036 167.600,166.800 167.441,166.800 167.247 C 166.800 167.052,166.485 166.793,166.100 166.671 C 165.322 166.425,163.112 165.139,162.800 164.751 C 162.690 164.615,161.700 164.018,160.600 163.425 C 159.500 162.832,157.520 161.651,156.200 160.801 C 153.965 159.363,153.200 158.991,153.200 159.343 M92.000 167.000 C 91.450 168.208,90.865 169.198,90.700 169.199 C 90.535 169.199,90.400 169.506,90.400 169.880 C 90.400 170.807,90.848 170.253,92.346 167.475 C 93.695 164.975,93.758 164.799,93.300 164.801 C 93.135 164.802,92.550 165.792,92.000 167.000 M226.800 171.636 C 226.136 172.179,226.069 172.315,226.600 172.040 C 227.905 171.366,228.628 170.812,228.200 170.815 C 227.980 170.817,227.350 171.186,226.800 171.636 M177.200 174.190 C 177.200 174.294,177.740 174.659,178.400 175.000 C 179.083 175.353,179.600 175.444,179.600 175.210 C 179.600 174.985,179.330 174.800,179.000 174.800 C 178.670 174.800,178.400 174.620,178.400 174.400 C 178.400 174.180,178.130 174.000,177.800 174.000 C 177.470 174.000,177.200 174.085,177.200 174.190 M182.000 177.191 C 182.550 177.616,183.450 178.192,184.000 178.470 C 184.550 178.748,185.752 179.476,186.672 180.088 C 187.592 180.699,188.459 181.200,188.600 181.200 C 188.741 181.200,189.608 181.713,190.528 182.341 C 192.873 183.941,199.595 188.000,199.899 188.000 C 200.037 188.000,199.764 187.640,199.292 187.200 C 198.820 186.760,198.238 186.400,198.000 186.400 C 197.762 186.400,197.180 186.040,196.708 185.600 C 196.236 185.160,195.613 184.800,195.325 184.800 C 195.036 184.800,194.800 184.641,194.800 184.447 C 194.800 184.252,194.485 183.993,194.100 183.871 C 193.388 183.646,191.164 182.376,190.800 181.987 C 190.690 181.869,188.800 180.699,186.600 179.387 C 184.400 178.074,182.540 176.865,182.467 176.700 C 182.393 176.535,182.033 176.404,181.667 176.409 C 181.156 176.416,181.234 176.599,182.000 177.191 M86.030 178.500 C 85.719 179.215,85.359 179.890,85.230 180.000 C 85.101 180.110,84.396 181.370,83.664 182.800 C 78.180 193.512,77.130 195.664,77.305 195.838 C 77.414 195.947,78.123 194.813,78.881 193.318 C 79.638 191.823,81.822 187.585,83.733 183.900 C 85.644 180.215,87.070 177.200,86.902 177.200 C 86.733 177.200,86.341 177.785,86.030 178.500 M72.400 204.600 C 71.850 205.808,71.265 206.798,71.100 206.799 C 70.935 206.799,70.800 207.160,70.800 207.600 C 70.800 208.040,70.620 208.400,70.400 208.400 C 70.180 208.400,70.000 208.760,70.000 209.200 C 70.000 209.640,69.820 210.000,69.600 210.000 C 69.380 210.000,69.200 210.345,69.200 210.767 C 69.200 211.188,69.064 211.593,68.898 211.667 C 68.732 211.740,67.968 213.060,67.200 214.600 C 66.432 216.140,65.668 217.460,65.502 217.533 C 65.336 217.607,65.200 217.997,65.200 218.400 C 65.200 218.803,65.057 219.193,64.883 219.267 C 64.575 219.396,58.400 231.454,58.400 231.925 C 58.400 232.595,59.411 230.908,61.711 226.400 C 64.122 221.674,69.060 212.151,72.461 205.666 C 74.111 202.519,74.157 202.399,73.700 202.401 C 73.535 202.402,72.950 203.392,72.400 204.600 M53.757 240.510 C 53.294 241.439,52.144 243.640,51.202 245.400 C 49.067 249.388,44.107 259.143,43.789 259.979 C 43.091 261.814,44.654 259.211,47.019 254.600 C 48.486 251.740,50.935 247.015,52.461 244.100 C 53.987 241.185,55.092 238.804,54.918 238.810 C 54.743 238.815,54.221 239.580,53.757 240.510 M346.800 242.850 C 346.800 243.198,348.037 245.600,348.217 245.600 C 348.304 245.600,348.261 245.285,348.121 244.900 C 347.833 244.106,346.800 242.503,346.800 242.850 M348.415 246.200 C 348.417 246.420,348.786 247.050,349.236 247.600 C 349.779 248.264,349.915 248.331,349.640 247.800 C 348.966 246.495,348.412 245.772,348.415 246.200 M42.640 262.040 C 42.286 262.749,42.074 263.407,42.169 263.502 C 42.264 263.597,42.638 263.101,43.000 262.400 C 43.362 261.699,43.574 261.041,43.471 260.938 C 43.368 260.835,42.994 261.331,42.640 262.040 M39.600 267.800 C 39.050 269.008,38.465 269.998,38.300 269.999 C 38.135 269.999,38.000 270.360,38.000 270.800 C 38.000 271.240,37.820 271.600,37.600 271.600 C 37.380 271.600,37.200 271.960,37.200 272.400 C 37.200 272.840,37.020 273.200,36.800 273.200 C 36.580 273.200,36.400 273.560,36.400 274.000 C 36.400 274.440,36.220 274.800,36.000 274.800 C 35.780 274.800,35.600 275.106,35.600 275.480 C 35.600 276.559,36.130 275.747,38.654 270.807 C 41.496 265.243,41.340 265.600,40.933 265.601 C 40.750 265.602,40.150 266.592,39.600 267.800 M33.756 278.912 C 33.073 280.280,31.318 283.676,29.856 286.458 C 28.395 289.241,27.200 291.662,27.200 291.838 C 27.200 292.624,28.173 290.973,31.227 285.000 C 33.028 281.480,34.630 278.420,34.788 278.200 C 35.277 277.520,35.590 276.399,35.287 276.412 C 35.129 276.418,34.440 277.543,33.756 278.912 M22.835 300.100 C 22.527 300.815,21.928 301.898,21.506 302.506 C 21.083 303.114,20.814 303.834,20.907 304.106 C 21.001 304.378,21.737 303.295,22.544 301.700 C 23.350 300.105,23.872 298.800,23.703 298.800 C 23.534 298.800,23.143 299.385,22.835 300.100 M378.000 302.878 C 378.000 303.005,378.269 303.624,378.598 304.254 C 378.926 304.884,379.190 305.130,379.185 304.800 C 379.179 304.470,378.910 303.851,378.587 303.424 C 378.264 302.996,378.000 302.751,378.000 302.878 M20.267 305.067 C 20.120 305.213,20.000 305.663,20.000 306.067 C 20.000 306.470,19.820 306.800,19.600 306.800 C 19.380 306.800,19.200 306.980,19.200 307.200 C 19.200 308.081,19.948 307.524,20.363 306.335 C 20.804 305.068,20.766 304.567,20.267 305.067 M200.705 327.483 C 201.202 327.579,201.922 327.575,202.305 327.475 C 202.687 327.375,202.280 327.296,201.400 327.301 C 200.520 327.305,200.207 327.387,200.705 327.483 M196.600 328.000 C 195.955 328.277,196.087 328.349,197.276 328.372 C 198.088 328.387,198.864 328.220,199.000 328.000 C 199.298 327.517,197.723 327.517,196.600 328.000 M192.096 329.509 C 188.999 331.115,186.395 333.552,184.700 336.433 C 183.241 338.911,182.787 340.302,183.600 339.800 C 183.820 339.664,184.000 339.271,184.000 338.927 C 184.000 337.378,189.677 330.800,191.013 330.800 C 191.336 330.800,191.601 330.665,191.603 330.500 C 191.607 330.141,193.544 329.200,194.280 329.200 C 194.566 329.200,194.800 329.020,194.800 328.800 C 194.800 328.206,194.411 328.308,192.096 329.509 M212.783 332.900 C 213.764 333.945,214.619 334.800,214.683 334.800 C 214.984 334.800,214.666 334.441,212.900 332.783 L 211.000 331.000 212.783 332.900 M182.703 341.200 C 182.261 342.715,182.315 343.445,182.831 342.929 C 183.068 342.692,183.202 341.981,183.129 341.349 L 182.995 340.200 182.703 341.200 M182.184 363.000 C 182.184 373.120,182.236 377.203,182.300 372.073 C 182.363 366.942,182.363 358.662,182.300 353.673 C 182.236 348.683,182.184 352.880,182.184 363.000 M218.184 363.200 C 218.184 373.210,218.236 377.305,218.300 372.300 C 218.363 367.295,218.363 359.105,218.300 354.100 C 218.236 349.095,218.184 353.190,218.184 363.200 M182.569 384.242 C 183.945 391.915,191.012 397.843,199.600 398.529 C 201.273 398.662,201.772 398.622,201.000 398.415 C 200.340 398.239,199.046 398.073,198.124 398.047 C 197.202 398.021,196.336 397.820,196.200 397.600 C 196.064 397.380,195.637 397.200,195.252 397.200 C 192.915 397.200,186.487 392.565,185.794 390.380 C 185.657 389.951,185.378 389.600,185.173 389.600 C 184.968 389.600,184.800 389.240,184.800 388.800 C 184.800 388.360,184.620 388.000,184.400 388.000 C 184.180 388.000,184.000 387.651,184.000 387.224 C 184.000 386.797,183.820 386.336,183.600 386.200 C 183.380 386.064,183.200 385.344,183.200 384.600 C 183.200 383.856,182.995 383.121,182.745 382.966 C 182.417 382.763,182.368 383.122,182.569 384.242 " stroke="none" fill="#5474a1" fill-rule="evenodd"></path></g></svg>